<svg xmlns="http://www.w3.org/2000/svg" width="39.603" height="39.603" viewBox="0 0 39.603 39.603">
  <g id="Group_1134" data-name="Group 1134" transform="translate(243.298 161.299)">
    <g id="Layer_1" data-name="Layer 1" transform="translate(-242.423 -160.424)">
      <circle id="Ellipse_1914" data-name="Ellipse 1914" cx="18.927" cy="18.927" r="18.927" fill="none" stroke="#fff" stroke-linecap="round" stroke-linejoin="round" stroke-width="1.75"/>
    </g>
    <g id="Layer_2_copy_2" data-name="Layer 2 copy 2" transform="translate(-234.626 -152.627)">
      <path id="Path_39019" data-name="Path 39019" d="M-211.129-142.937h-7.023v-7.022a.713.713,0,0,0-.714-.714h-5.357a.714.714,0,0,0-.714.714v7.022h-7.022a.714.714,0,0,0-.714.714v5.357a.714.714,0,0,0,.714.714h7.022v7.023a.714.714,0,0,0,.714.714h5.357a.714.714,0,0,0,.714-.714v-7.023h7.023a.714.714,0,0,0,.714-.714v-5.357A.714.714,0,0,0-211.129-142.937Z" transform="translate(232.674 150.674)" fill="none" stroke="#0a5de9" stroke-linecap="round" stroke-linejoin="round" stroke-width="1.75"/>
    </g>
  </g>
</svg>
