<svg xmlns="http://www.w3.org/2000/svg" xmlns:xlink="http://www.w3.org/1999/xlink" width="744.24" height="547.067" viewBox="0 0 744.24 547.067">
  <defs>
    <linearGradient id="linear-gradient" x1="0.501" y1="1" x2="0.501" gradientUnits="objectBoundingBox">
      <stop offset="0" stop-color="gray" stop-opacity="0.251"/>
      <stop offset="0.54" stop-color="gray" stop-opacity="0.122"/>
      <stop offset="1" stop-color="gray" stop-opacity="0.102"/>
    </linearGradient>
  </defs>
  <g id="undraw_mobile_marketing_iqbr" transform="translate(0 0.003)">
    <path id="Path_38896" data-name="Path 38896" d="M505.169,122.634c-43.93-1.527-85.769-15.707-125.721-31.223S299.924,58.7,257.019,50.481c-27.551-5.288-59.093-6.034-81.316,8.743-21.381,14.254-28.291,38.792-32,61.578-2.8,17.152-4.439,35.194,3.217,51.247,5.322,11.145,14.756,20.512,21.286,31.223,22.718,37.142,6.659,82.945-17.953,119.212-11.539,17.01-24.945,33.26-33.857,51.355s-13.032,38.859-5.233,57.329c7.724,18.327,26.139,32.065,46.088,41.744,40.516,19.643,88.24,25.27,134.81,28.454,103.057,7.052,206.657,4,309.986.944,38.242-1.134,76.646-2.281,114.264-8.193,20.892-3.285,42.457-8.5,57.62-21.042,19.257-15.971,24.028-43.02,11.125-63.044-21.639-33.592-81.452-41.941-96.6-77.99-8.322-19.84.224-41.948,12.326-60.349,25.956-39.484,69.458-74.115,71.746-119.246,1.575-30.992-19.338-62.032-51.674-76.7-33.891-15.374-80.9-13.44-105.888,12.007C589.207,113.9,543.961,123.978,505.169,122.634Z" transform="translate(-69.523 -47.02)" fill="#0a5de9" opacity="0.1"/>
    <g id="Group_1121" data-name="Group 1121" transform="translate(280.812 76.116)" opacity="0.9">
      <rect id="Rectangle_584" data-name="Rectangle 584" width="6.014" height="49.564" rx="2.29" transform="translate(199.978 92.747)" fill="#3a3768"/>
      <rect id="Rectangle_585" data-name="Rectangle 585" width="3.373" height="16.318" rx="1.687" transform="translate(0.122 53.921)" fill="#3a3768"/>
      <rect id="Rectangle_586" data-name="Rectangle 586" width="3.801" height="28.4" rx="1.901" transform="translate(0 83.794)" fill="#3a3768"/>
      <rect id="Rectangle_587" data-name="Rectangle 587" width="3.618" height="28.644" rx="1.809" transform="translate(0.061 122.13)" fill="#3a3768"/>
      <rect id="Rectangle_588" data-name="Rectangle 588" width="201.186" height="408.882" rx="38.99" transform="translate(2.036)" fill="#3a3768"/>
      <rect id="Rectangle_589" data-name="Rectangle 589" width="28.094" height="5.702" rx="2.851" transform="translate(83.217 12.204)" fill="#e6e8ec"/>
      <circle id="Ellipse_1898" data-name="Ellipse 1898" cx="3.238" cy="3.238" r="3.238" transform="translate(115.56 11.824)" fill="#e6e8ec"/>
    </g>
    <ellipse id="Ellipse_1899" data-name="Ellipse 1899" cx="135.733" cy="13.833" rx="135.733" ry="13.833" transform="translate(25.841 480.573)" fill="#0a5de9" opacity="0.1"/>
    <ellipse id="Ellipse_1900" data-name="Ellipse 1900" cx="63.587" cy="6.482" rx="63.587" ry="6.482" transform="translate(399.793 534.1)" fill="#0a5de9" opacity="0.1"/>
    <ellipse id="Ellipse_1901" data-name="Ellipse 1901" cx="63.587" cy="6.482" rx="63.587" ry="6.482" transform="translate(617.066 501.438)" fill="#0a5de9" opacity="0.1"/>
    <path id="Path_38897" data-name="Path 38897" d="M647.121,174.84h-23.01v2.776a13.155,13.155,0,0,1-13.155,13.154H537.528a13.155,13.155,0,0,1-13.154-13.155V174.84H502.761a15.971,15.971,0,0,0-15.971,15.978V546.444a15.971,15.971,0,0,0,15.971,15.978h144.36A15.978,15.978,0,0,0,663.1,546.444V190.818a15.978,15.978,0,0,0-15.978-15.978Z" transform="translate(-191.513 -88.081)" fill="#0a5de9"/>
    <path id="Path_38898" data-name="Path 38898" d="M843.37,132.695s-57.152-3.448-50.412,36.6c0,0-1.358,7.08,5.077,10.29,0,0,.1-2.966,5.858-1.962a26.092,26.092,0,0,0,6.211.3,12.9,12.9,0,0,0,7.6-3.129h0s16.06-6.638,22.311-32.893c0,0,4.622-5.729,4.439-7.2l-9.645,4.12s3.292,6.957.679,12.74c0,0-.312-12.489-2.165-12.218-.38.054-5.016,2.41-5.016,2.41s5.674,12.116,1.357,20.926c0,0,1.622-14.933-3.163-20.051l-6.788,3.964s6.625,12.516,2.138,22.732c0,0,1.147-15.666-3.564-21.768l-6.15,4.8s6.224,12.333,2.43,20.8c0,0-.5-18.232-3.767-19.61,0,0-5.383,4.751-6.2,6.693,0,0,4.263,8.96,1.622,13.684,0,0-1.622-12.15-2.953-12.218,0,0-5.362,8.05-5.919,13.575,0,0,.231-8.206,4.616-14.336,0,0-5.179.889-8.206,4.249,0,0,.835-5.688,9.5-6.19,0,0,4.432-6.109,5.62-6.475,0,0-8.654-.726-13.9,1.6,0,0,4.616-5.369,15.489-2.925l6.068-4.962s-11.39-1.554-16.223.163c0,0,5.566-4.751,17.865-1.29l6.611-3.95s-9.713-2.1-15.5-1.358c0,0,6.109-3.292,17.438.278l4.751-2.125s-7.12-1.4-9.2-1.622-2.192-.794-2.192-.794a24.673,24.673,0,0,1,13.46,1.534S843.54,133.326,843.37,132.695Z" transform="translate(-289.687 -74.519)" fill="#0a5de9"/>
    <path id="Path_38899" data-name="Path 38899" d="M770.233,106.474s-25.793-1.554-22.779,16.542a4.414,4.414,0,0,0,2.294,4.65s.047-1.358,2.647-.889a11.886,11.886,0,0,0,2.8.136,5.851,5.851,0,0,0,3.435-1.412h0s7.256-3,10.08-14.865c0,0,2.091-2.586,2.036-3.251l-4.358,1.86s1.487,3.143.312,5.756c0,0-.136-5.641-.977-5.512-.17,0-2.26,1.093-2.26,1.093s2.559,5.471.625,9.455c0,0,.733-6.747-1.425-9.062l-3.068,1.792s2.993,5.654.964,10.27c0,0,.523-7.08-1.609-9.835l-2.783,2.172s2.817,5.573,1.1,9.4c0,0-.224-8.24-1.7-8.865a16.773,16.773,0,0,0-2.8,3.027s1.921,4.073.726,6.184c0,0-.733-5.491-1.358-5.518,0,0-2.423,3.638-2.674,6.109a13.209,13.209,0,0,1,2.084-6.475,7.27,7.27,0,0,0-3.706,1.921s.373-2.573,4.3-2.8c0,0,2-2.763,2.539-2.932,0,0-3.91-.326-6.279.726,0,0,2.084-2.423,7-1.358l2.715-2.24s-5.145-.679-7.331.075c0,0,2.518-2.145,8.071-.584l2.987-1.785a27.133,27.133,0,0,0-7-.6s2.756-1.486,7.874.122l2.138-.957s-3.211-.631-4.154-.733-.991-.36-.991-.36a11.1,11.1,0,0,1,6.034.679S770.308,106.759,770.233,106.474Z" transform="translate(-275.168 -66.109)" fill="#0a5de9"/>
    <ellipse id="Ellipse_1902" data-name="Ellipse 1902" cx="27.293" cy="4.616" rx="27.293" ry="4.616" transform="translate(0 455.974)" fill="#0a5de9"/>
    <path id="Path_38900" data-name="Path 38900" d="M96.646,708.508a7.894,7.894,0,0,0,2.606-3.923,3.518,3.518,0,0,0-1.819-4c-1.67-.645-3.455.516-4.806,1.683s-2.905,2.5-4.677,2.253a7.107,7.107,0,0,0,2.179-6.659,2.715,2.715,0,0,0-.611-1.357c-.923-.991-2.606-.563-3.72.217-3.53,2.484-4.514,7.276-4.527,11.593a21.387,21.387,0,0,1-.068-4.751c-.007-1.568-.448-3.394-1.792-4.222A5.43,5.43,0,0,0,76.7,698.7c-1.588-.054-3.353.1-4.439,1.262-1.358,1.439-1,3.862.176,5.43a17.748,17.748,0,0,0,4.588,3.679,10.126,10.126,0,0,1,3.285,3.129,2.993,2.993,0,0,1,.244.557H90.5a27.672,27.672,0,0,0,6.15-4.249Z" transform="translate(-58.071 -255.473)" fill="#0a5de9"/>
    <path id="Path_38901" data-name="Path 38901" d="M874.694,630.54s5.871,7.684-2.715,19.277-15.659,21.381-12.795,28.61c0,0,12.951-21.531,23.492-21.836S886.287,643.491,874.694,630.54Z" transform="translate(-310.931 -234.467)" fill="#0a5de9"/>
    <path id="Path_38902" data-name="Path 38902" d="M874.852,630.54a9.671,9.671,0,0,1,1.2,2.41c10.283,12.082,15.761,23.363,5.871,23.641-9.2.265-20.255,16.732-22.895,20.886a7.757,7.757,0,0,0,.312.95s12.951-21.531,23.492-21.836S886.445,643.491,874.852,630.54Z" transform="translate(-311.089 -234.467)" opacity="0.1"/>
    <path id="Path_38903" data-name="Path 38903" d="M897.778,644.181c0,2.715-.305,4.894-.679,4.894s-.679-2.192-.679-4.894.38-1.425.753-1.425S897.778,641.466,897.778,644.181Z" transform="translate(-323.1 -238.293)" fill="#ffd037"/>
    <path id="Path_38904" data-name="Path 38904" d="M901.746,648.842c-2.376,1.29-4.439,2.077-4.622,1.744s1.6-1.643,3.978-2.939,1.432-.346,1.615,0S904.122,647.545,901.746,648.842Z" transform="translate(-323.322 -239.75)" fill="#ffd037"/>
    <path id="Path_38905" data-name="Path 38905" d="M830.4,630.54s-5.871,7.684,2.715,19.277,15.659,21.381,12.8,28.61c0,0-12.951-21.531-23.492-21.836S818.812,643.491,830.4,630.54Z" transform="translate(-297.661 -234.467)" fill="#0a5de9"/>
    <path id="Path_38906" data-name="Path 38906" d="M830.4,630.54a9.4,9.4,0,0,0-1.2,2.41c-10.283,12.082-15.761,23.363-5.878,23.641,9.211.265,20.254,16.732,22.9,20.886a9.193,9.193,0,0,1-.312.95S832.961,656.9,822.42,656.591,818.809,643.491,830.4,630.54Z" transform="translate(-297.659 -234.467)" opacity="0.1"/>
    <path id="Path_38907" data-name="Path 38907" d="M820.55,644.181c0,2.715.305,4.894.679,4.894s.679-2.192.679-4.894-.38-1.425-.753-1.425S820.55,641.466,820.55,644.181Z" transform="translate(-298.728 -238.293)" fill="#ffd037"/>
    <path id="Path_38908" data-name="Path 38908" d="M814.321,648.842c2.369,1.29,4.439,2.077,4.616,1.744s-1.6-1.643-3.971-2.939-1.439-.346-1.615,0S811.973,647.545,814.321,648.842Z" transform="translate(-296.267 -239.75)" fill="#ffd037"/>
    <path id="Path_38909" data-name="Path 38909" d="M823.31,695.41s16.419-.509,21.368-4.032,25.257-7.731,26.472-2.077,24.673,28.108,6.109,28.257-43.075-2.892-48.009-5.9S823.31,695.41,823.31,695.41Z" transform="translate(-299.615 -252.455)" fill="#a8a8a8"/>
    <path id="Path_38910" data-name="Path 38910" d="M877.632,719.78c-18.537.149-43.075-2.892-48.009-5.9-3.767-2.287-5.26-10.507-5.763-14.3h-.55s1.039,13.243,5.98,16.25,29.472,6.048,48.009,5.9c5.349-.047,7.2-1.948,7.1-4.751C883.652,718.68,881.616,719.746,877.632,719.78Z" transform="translate(-299.615 -256.645)" opacity="0.2"/>
    <rect id="Rectangle_590" data-name="Rectangle 590" width="52.964" height="52.964" transform="translate(396.759 331.149)" fill="#3a3768" opacity="0.3"/>
    <rect id="Rectangle_591" data-name="Rectangle 591" width="52.964" height="52.964" transform="translate(318.701 261.236)" fill="#3a3768" opacity="0.3"/>
    <rect id="Rectangle_592" data-name="Rectangle 592" width="52.964" height="52.964" transform="translate(323.792 399.867)" fill="#3a3768" opacity="0.3"/>
    <rect id="Rectangle_593" data-name="Rectangle 593" width="52.964" height="52.964" transform="translate(311.975 131.191)" fill="#fff"/>
    <path id="Path_38911" data-name="Path 38911" d="M564.66,265.79l-1.88,1.873a6.632,6.632,0,0,1,0,9.387l1.88,1.887A9.3,9.3,0,0,0,564.66,265.79Z" transform="translate(-215.924 -117.297)" fill="#0a5de9"/>
    <path id="Path_38912" data-name="Path 38912" d="M555.809,259.728l-1.853,1.853a11.8,11.8,0,0,1,0,16.67l1.853,1.853a14.4,14.4,0,0,0,0-20.363Zm-8.824,6.937V258.18h-2.613l-7.819,6.516H526.126L523.52,266v9.129l2.607,1.3,6.543,10.433h3.91l-2.444-10.433h2.444l7.819,5.22h2.613v-8.485a3.333,3.333,0,0,0,0-6.5Z" transform="translate(-203.312 -114.853)" fill="#0a5de9"/>
    <rect id="Rectangle_594" data-name="Rectangle 594" width="52.964" height="52.964" transform="matrix(0.742, -0.671, 0.671, 0.742, 399.834, 347.592)" fill="#fff"/>
    <path id="Path_38913" data-name="Path 38913" d="M673.34,547.735l3.842-3.489,21.042,23.193-3.869,3.5Zm9.075,21.721,3.869-3.5,6.109,6.788-3.869,3.5Zm8.1-14.363,3.869-3.5,9.618,10.636-3.862,3.5Zm.55-11.05,3.869-3.5,14.872,16.433-3.869,3.5Z" transform="translate(-251.439 -205.556)" fill="#0a5de9"/>
    <rect id="Rectangle_595" data-name="Rectangle 595" width="52.964" height="52.964" transform="translate(395.884 195.016)" fill="#fff"/>
    <path id="Path_38914" data-name="Path 38914" d="M675.441,363.679l-7.107,10.86a3.869,3.869,0,0,1,.882,2.471,3.916,3.916,0,0,1-7.826,0,4.319,4.319,0,0,1,.068-.726l-4.7-2.715a3.93,3.93,0,0,1-4.636.584l-5,4.677v4.663a3.489,3.489,0,0,0,3.482,3.482h29.553a3.5,3.5,0,0,0,3.482-3.482V366.17L678.9,363a3.87,3.87,0,0,1-2.4.828,3.984,3.984,0,0,1-1.032-.143Z" transform="translate(-243.02 -148.524)" fill="#0a5de9"/>
    <path id="Path_38915" data-name="Path 38915" d="M654.053,362.133a3.91,3.91,0,0,1,3.917,3.91,2.535,2.535,0,0,1-.034.509l4.9,2.715a3.848,3.848,0,0,1,2.477-.882,3.759,3.759,0,0,1,.842.1l7.127-11.037a3.91,3.91,0,1,1,7.1-2.267,4.07,4.07,0,0,1-.109.923l3.394,2.247v-6.53a3.489,3.489,0,0,0-3.482-3.475H650.612a3.482,3.482,0,0,0-3.482,3.475v18.693l3.258-3.122a3.95,3.95,0,0,1-.244-1.358A3.91,3.91,0,0,1,654.053,362.133Z" transform="translate(-243.02 -143.815)" fill="#0a5de9"/>
    <rect id="Rectangle_596" data-name="Rectangle 596" width="52.964" height="52.964" transform="translate(328.93 254.068)" fill="#fff"/>
    <path id="Path_38916" data-name="Path 38916" d="M583.344,435.451,550.763,453.1a.679.679,0,0,0,.048,1.215l5.559,2.1a1.357,1.357,0,0,1,.733.679l4.317,8.892c.081.394.808.5.815.1l-.679-7.351a2.613,2.613,0,0,1,.6-1.486L579.04,440.7a.421.421,0,0,1,.373-.109.387.387,0,0,1,.21.618L565.064,459a3.251,3.251,0,0,0-.57,1.466l-.869,6.346c.068.557.5.767.855.272l3.136-3.686a.679.679,0,0,1,.923-.149l8.084,5.892a.679.679,0,0,0,1.025-.4l6.632-32.581a.679.679,0,0,0-.95-.733Z" transform="translate(-211.95 -171.772)" fill="#0a5de9"/>
    <path id="Path_38917" data-name="Path 38917" d="M1022.971,776.172c3.082.4,6.279.679,9.231-.312.455-.143.977-.455.916-.923a1.087,1.087,0,0,0-.21-.448,28.791,28.791,0,0,1-2.8-5.315.434.434,0,0,0-.17-.238.414.414,0,0,0-.3,0c-1.358.353-2.539,1.235-3.9,1.609a5.565,5.565,0,0,1-2.118.163c-.611-.068-1.453-.577-2-.516C1021.959,772.208,1022.733,774.116,1022.971,776.172Z" transform="translate(-363.318 -278.916)" fill="#0a5de9"/>
    <path id="Path_38918" data-name="Path 38918" d="M1107.94,767.008c2.036-1.357,4.141-2.864,5.342-5.016a.823.823,0,0,0,.142-.428.885.885,0,0,0-.17-.421,17.389,17.389,0,0,0-4.337-4.683,12.821,12.821,0,0,0-2.423,2.233c-.509.536-1.921,1.419-1.934,2.22,0,.482.536,1,.787,1.358.339.5.679,1.018.971,1.534A25.472,25.472,0,0,1,1107.94,767.008Z" transform="translate(-389.962 -274.917)" fill="#0a5de9"/>
    <path id="Path_38919" data-name="Path 38919" d="M1026.519,783.948a2.036,2.036,0,0,1-.367,1.358,1.811,1.811,0,0,1-.781.455c-4.317,1.541-9.286-.387-13.575,1.14-.889.312-1.724.76-2.613,1.059a14.146,14.146,0,0,1-3.238.577c-1.527.149-3.055.237-4.582.278a11.087,11.087,0,0,1-3.448-.3,4.175,4.175,0,0,1-2.647-2.1,2.036,2.036,0,0,1-.129-1.493,1.688,1.688,0,0,1,.278-.482,4.134,4.134,0,0,1,1.018-.821l1.588-1.025a10.609,10.609,0,0,1,2.4-1.276c.624-.2,1.3-.292,1.928-.475,2.233-.679,3.93-2.423,5.512-4.12l2.159-2.3a2.111,2.111,0,0,1,.747-.6,2.036,2.036,0,0,1,.923-.1,12.468,12.468,0,0,1,5.885,1.982,8.488,8.488,0,0,0,1.453.855,5.186,5.186,0,0,0,4.073-.509c.557-.292.434-.475.679-1s.8-.862,1.29-.38a1.418,1.418,0,0,1,.305.584,16.2,16.2,0,0,1,.292,4.8,2.13,2.13,0,0,0,.095.747,4.556,4.556,0,0,0,.421.679,1.07,1.07,0,0,1,.089.177A4.709,4.709,0,0,1,1026.519,783.948Z" transform="translate(-354.785 -280.46)" fill="#514e7f"/>
    <path id="Path_38920" data-name="Path 38920" d="M1026.519,787.714a2.036,2.036,0,0,1-.367,1.358,1.811,1.811,0,0,1-.781.455c-4.317,1.541-9.286-.387-13.575,1.14-.889.312-1.724.76-2.613,1.059a14.149,14.149,0,0,1-3.238.577c-1.527.149-3.055.237-4.582.278a11.085,11.085,0,0,1-3.448-.3,4.174,4.174,0,0,1-2.647-2.1,2.036,2.036,0,0,1-.129-1.493,1.688,1.688,0,0,1,.278-.482c.258.53.441,1.222.6,1.473a3.014,3.014,0,0,0,2.036,1.459,5.166,5.166,0,0,0,1.839-.237c3.91-.971,8.064-.984,11.811-2.45a28.218,28.218,0,0,1,3.869-1.487,30.738,30.738,0,0,1,4.181-.339c2.206-.177,4.337-.842,6.516-1.188a4.71,4.71,0,0,1,.251,2.274Z" transform="translate(-354.785 -284.226)" fill="#464353"/>
    <path id="Path_38921" data-name="Path 38921" d="M1112.515,768.057a7.834,7.834,0,0,1-2.382,4.242,27.2,27.2,0,0,0-3.326,3.645c-1.127,1.711-1.622,3.821-3.075,5.267a8.333,8.333,0,0,1-1.846,1.358,12.761,12.761,0,0,1-2.4,1.1,18.341,18.341,0,0,1-6.788.373,6.035,6.035,0,0,1-2.145-.421,6.228,6.228,0,0,1-.91-.55,4.315,4.315,0,0,1-1.357-1.405,1.411,1.411,0,0,1-.129-1.011,2.308,2.308,0,0,1,.679-.991,15.355,15.355,0,0,1,1.636-1.473,9.711,9.711,0,0,0,2.131-1.873,6.106,6.106,0,0,0,.821-1.873,16.79,16.79,0,0,0,.6-3.563,11.221,11.221,0,0,1,.251-2.383c.346-1.222,1.256-2.328,1.147-3.6a.922.922,0,0,1,.047-.543.849.849,0,0,1,.428-.265,7.732,7.732,0,0,1,2.226-.509,2.566,2.566,0,0,1,2.036.808c.319.38.523.909.991,1.079a1.642,1.642,0,0,0,.679,0,5.774,5.774,0,0,0,3.231-1,4.072,4.072,0,0,0,1.358-2.966c0-.421-.19-.862.455-.95.5-.068.882.448,1.134.787a11.084,11.084,0,0,1,2.179,3.971,1.1,1.1,0,0,1,.414-.081,1.771,1.771,0,0,1,1.48.76A2.932,2.932,0,0,1,1112.515,768.057Z" transform="translate(-384.68 -276.231)" fill="#514e7f"/>
    <path id="Path_38922" data-name="Path 38922" d="M1112.6,770.293a7.835,7.835,0,0,1-2.382,4.242,27.194,27.194,0,0,0-3.326,3.645c-1.127,1.711-1.622,3.821-3.075,5.267a8.324,8.324,0,0,1-1.846,1.358,12.76,12.76,0,0,1-2.4,1.1,18.341,18.341,0,0,1-6.788.373,6.034,6.034,0,0,1-2.145-.421,6.226,6.226,0,0,1-.91-.55,4.318,4.318,0,0,1-1.358-1.405,3.307,3.307,0,0,1,1.4-.333c1.011.054,1.744,1,2.715,1.3,1.358.414,2.715-.557,4.134-.889.91-.21,1.873-.149,2.762-.441a6.818,6.818,0,0,0,2.036-1.235,10.336,10.336,0,0,0,2.179-2.1,13.417,13.417,0,0,0,1.283-2.552,36.448,36.448,0,0,1,2.586-4.948,3.282,3.282,0,0,1,.529-.679c.21-.2.475-.339.679-.516a5.4,5.4,0,0,0,1.643-2.993,5.015,5.015,0,0,1,.367-1,1.772,1.772,0,0,1,1.48.76A2.932,2.932,0,0,1,1112.6,770.293Z" transform="translate(-384.761 -278.466)" fill="#464353"/>
    <path id="Path_38923" data-name="Path 38923" d="M979.538,552.545a9.855,9.855,0,0,1,2.769,3.238c.679,1.276,4.405,11.186,4.188,12.6,1.222-1.235,6.068-1.439,7.283-2.667.516-.516,3.306-3.1,3.72-3.693s3.523-1.88,3.862-2.491c1.269-2.274-9-10.86-7.69-13.141a.557.557,0,0,0,.109-.353.543.543,0,0,0-.17-.272,16.343,16.343,0,0,0-2.973-2.036,4.752,4.752,0,0,1-2.267-2.715,9.756,9.756,0,0,0-2.627,1.778q-2.817,2.41-5.552,4.941c-.719.679-2.091,1.541-2.423,2.484S978.852,551.989,979.538,552.545Z" transform="translate(-349.215 -205.71)" fill="#a1616a"/>
    <path id="Path_38924" data-name="Path 38924" d="M998.761,552.61a29.759,29.759,0,0,0-4.4,3.6,8.8,8.8,0,0,0-2.8,4.487c-.129.679-.109,1.4-.217,2.1-.455,3.041-3.1,5.274-4.256,8.145a13.924,13.924,0,0,0-.747,2.715,32,32,0,0,0-.53,5.335c0,1.738,1.67,2.932,2.294,4.555a27.625,27.625,0,0,1,1.106,4.935,60.114,60.114,0,0,0,2.776,9.163c2.294,6.333,9.727,23.845,12.021,30.185,7.025-1.765,25.732-5.817,31.95-9.5,2.077-1.235-14.39-15.191-12.17-16.155a1.119,1.119,0,0,0,.618-.468,1.072,1.072,0,0,0,0-.679c-2.213-9.7-9.157-17.648-12.3-27.151-1.093-3.278-3.054-6.075-4.548-9.2-1.358-2.824-2.07-5.939-3.679-8.62a5.763,5.763,0,0,0-1.174-1.473,7.2,7.2,0,0,0-1.3-.781C1000.512,553.323,999.657,553.058,998.761,552.61Z" transform="translate(-351.815 -209.433)" fill="#514e7f"/>
    <circle id="Ellipse_1903" data-name="Ellipse 1903" cx="10.996" cy="10.996" r="10.996" transform="translate(619.7 323.737)" fill="#a1616a"/>
    <path id="Path_38925" data-name="Path 38925" d="M997.43,547.319a3.686,3.686,0,0,1,4.134-.591,2.036,2.036,0,0,1,1.229,1.982l5.43.081a11.361,11.361,0,0,1,2.586.238,3.76,3.76,0,0,1,2.158,1.358c.068.088.143.19.251.21a.434.434,0,0,0,.251-.088,4.786,4.786,0,0,1,2.715-.489,14.675,14.675,0,0,1,7.982,3.509,2.586,2.586,0,0,1,.95,1.161c.19.618,0,1.412.448,1.833,0,5.125,1.758,9.9,2.932,14.885a6.6,6.6,0,0,0,1.649,2.369,9.5,9.5,0,0,1,1.765,2.634c.991,2.586-.38,5.62.59,8.22a13.24,13.24,0,0,0,1.874,2.953,7.608,7.608,0,0,1,1.595,3.815c.041.624-.041,1.249,0,1.88a11.474,11.474,0,0,0,.448,2.471c.394,1.5.815,3,1.249,4.493.679,2.416,1.629,5.03,3.794,6.319-5.233.889-10.745,1.751-15.734-.061a8.147,8.147,0,0,1-1.962-.984c-1.8-1.283-2.668-3.482-3.441-5.552a26.1,26.1,0,0,1-1.928-7.168,8.2,8.2,0,0,0-.326-2.342c-.509-1.358-1.853-2.165-3.088-2.912a14.858,14.858,0,0,1-3.713-2.892,5.77,5.77,0,0,1-1.507-4.344c.1-.767.394-1.507.428-2.281a1.826,1.826,0,0,0-1.059-1.88c-3.808-1.154-5.627-5.661-6.475-9.55a30.476,30.476,0,0,1-.489-6.109l-.048-3.93a5.213,5.213,0,0,1-1.71-3.76,4.215,4.215,0,0,0,0-1.242,3.48,3.48,0,0,0-.869-1.358,11.471,11.471,0,0,1-2.111-2.878Z" transform="translate(-355.548 -207.421)" fill="#464353"/>
    <path id="Path_38926" data-name="Path 38926" d="M979.808,564.751a29.062,29.062,0,0,1-.122,3.693c-.109.461-.292.9-.428,1.357a8.01,8.01,0,0,0,.509,5.172,28.743,28.743,0,0,0,2.64,4.582,6.979,6.979,0,0,1,.849,1.582,8.2,8.2,0,0,1,.326,1.812,55.174,55.174,0,0,0,1.3,7.29,14.321,14.321,0,0,0,2.566,5.858,1.779,1.779,0,0,0,1.059.719,1.915,1.915,0,0,0,.9-.19l2.81-1.066a1.964,1.964,0,0,0,.679-.353,1.7,1.7,0,0,0,.394-1.1,16.162,16.162,0,0,0-1.235-6.659c-2.281-6.475-5.308-12.713-6.788-19.413-.414-1.873-.631-4.751-2-6.211-.563-.611-.373-.353-1.045,0a8.507,8.507,0,0,0-.984.523,3.224,3.224,0,0,0-1.432,2.4Z" transform="translate(-349.641 -212.276)" fill="#464353"/>
    <path id="Path_38927" data-name="Path 38927" d="M1059.24,625.68" transform="translate(-375.403 -232.906)" fill="#464353"/>
    <path id="Path_38928" data-name="Path 38928" d="M992.329,575.393q1.12,5.926,2.287,11.858l10.915-2.864a7.646,7.646,0,0,0-.943-3.265c-1-2.5-1.018-5.274-1.826-7.84-.611-1.955-1.67-3.754-2.24-5.722-.333-1.14-.5-2.335-.821-3.482a26.607,26.607,0,0,0-1.283-3.319,21.149,21.149,0,0,0-2.382-4.419,6.96,6.96,0,0,0-3.679,2.383,5.063,5.063,0,0,0-.679,2.349c-.19,2.457.679,4.921.4,7.351a21.721,21.721,0,0,0,.251,6.971Z" transform="translate(-353.691 -210.632)" fill="#0a5de9"/>
    <path id="Path_38929" data-name="Path 38929" d="M1009.5,650.869c.611,2.335-.278,4.751-1,7.073a54.92,54.92,0,0,0-2.226,10.65,8.823,8.823,0,0,1-.55,2.715,25.367,25.367,0,0,1-1.324,2.172c-1.1,1.941-1.072,4.317-.835,6.537.156,1.466.394,2.925.679,4.371.36,1.758.8,3.6.285,5.322.862-.19,1.453.923,1.419,1.812s-.346,1.839.075,2.62c1.072.387,1.086,1.86,1.052,2.993a25.244,25.244,0,0,0,.74,5.865q2.43,11.668,5.159,23.275c3.93,1.222,8.518,2.491,12.265.8a2.41,2.41,0,0,0,1.554-1.561,2.813,2.813,0,0,0-.149-1.2l-1.778-6.462a11.9,11.9,0,0,1-.638-4.751c.176-1.2.679-2.491.109-3.543a10.223,10.223,0,0,0-.747-.991c-.937-1.357-.448-3.183-.367-4.84a3.787,3.787,0,0,0-.081-1.106,5.8,5.8,0,0,0-.523-1.215,18.552,18.552,0,0,1-2.036-9.231,2.268,2.268,0,0,0-.163-1.208,2.773,2.773,0,0,1-.3-.489,1.31,1.31,0,0,1,.1-.889,7.726,7.726,0,0,1-1.432-1.357,2.036,2.036,0,0,0,.339-3.136,1.045,1.045,0,0,0,.5-1.8c-.231-.163-.529-.231-.679-.461-.251-.339-.047-.821.156-1.188l1.086-1.962c.808-1.453.991-3.251,1.86-4.67a35.055,35.055,0,0,0,2.864-6.537l3.1-8.62,2.1,1.826a6.589,6.589,0,0,1,1.731,1.975,8.341,8.341,0,0,1,.557,2.362c.774,4.684,3.726,8.743,4.819,13.365a9,9,0,0,0,.991,2.987,6.449,6.449,0,0,1,.57.855,4.5,4.5,0,0,1,.238,1.419,6.611,6.611,0,0,0,2.79,4.752c1.032.679,2.342,1.2,2.885,2.328a4.591,4.591,0,0,0,.475.991c.5.6,1.588.679,1.806,1.432.115.428-.109.93.136,1.3a1.19,1.19,0,0,0,.509.38l3.034,1.52c3.394,1.69,5.1,5.566,7.609,8.41a17.466,17.466,0,0,1,2.274,3.014c1.079,1.928,1.581,4.351,3.394,5.593a5.272,5.272,0,0,1,1.317.977c.577.753.367,1.812.414,2.763s.781,2.077,1.683,1.792a6.552,6.552,0,0,0,0,3.509,17.689,17.689,0,0,0,10.725-4.344,4.232,4.232,0,0,0,1.744-2.925,1.133,1.133,0,0,0-.129-.584,1.588,1.588,0,0,0-.679-.516c-2.83-1.534-3.686-5.091-5.1-7.982a66.774,66.774,0,0,0-4.67-7.113c-3.394-5.091-5.661-11.247-10.758-14.614-1.12-.74-2.423-1.4-2.98-2.62a20.919,20.919,0,0,1-.6-2.172,1.826,1.826,0,0,0-1.6-1.357,9.682,9.682,0,0,0,.367-3.394,4.223,4.223,0,0,0-.17-1.459,6.909,6.909,0,0,0-.747-1.439,13.949,13.949,0,0,1-1.921-7.466,12.023,12.023,0,0,0-.129-4.011c-.2-.679-.557-1.242-.808-1.873a11.685,11.685,0,0,1-.584-3.5l-.278-4.473a21.4,21.4,0,0,0-.577-4.419c-.944-3.469-1.846-18-5.043-19.637s-8.654,9.543-12.218,9.767a16.293,16.293,0,0,0-4.67.9,22.633,22.633,0,0,0-6.333,4.2l-6.6,5.539a24.046,24.046,0,0,1-4.093,2.953Z" transform="translate(-357.476 -233.442)" fill="#464353"/>
    <path id="Path_38930" data-name="Path 38930" d="M964.395,520.7a8.294,8.294,0,0,1,6.4-3.122,14.934,14.934,0,0,1,7.073,1.778,9.118,9.118,0,0,0,2.036.848c1.167.238,2.457-.081,3.509.475,1.4.74,1.663,2.627,1.541,4.2s-.414,3.3.421,4.65a12.879,12.879,0,0,1,.808,1.208,4.032,4.032,0,0,1-.075,2.586,20.739,20.739,0,0,1-1.358-1.7,1.58,1.58,0,0,0-1.921-.5c-.6.4-.6,1.14-.624,1.8s-.2,1.453-.828,1.67a1.357,1.357,0,0,1-1.358-.543c-1.066-1.3-.638-3.394-1.69-4.7-.6-.747-1.6-1.106-2.158-1.887-.434-.611-.543-1.4-.923-2.036s-1.269-1.147-1.867-.679a2.54,2.54,0,0,0-.5.679,2.857,2.857,0,0,1-3.394,1.018,5.952,5.952,0,0,0-1.473-.631,1.812,1.812,0,0,0-1.677.909,3.61,3.61,0,0,0-.441,1.941,4.514,4.514,0,0,1-.367,2.668,2.758,2.758,0,0,1-.787.679,2.33,2.33,0,0,1-2.579.265,1.941,1.941,0,0,1-.577-1.805,14.83,14.83,0,0,1,.55-1.907c.407-1.439-.122-3.061.326-4.419A13.9,13.9,0,0,1,964.395,520.7Z" transform="translate(-344.023 -198.181)" fill="#464353"/>
    <path id="Path_38931" data-name="Path 38931" d="M974.4,561.145a1.7,1.7,0,0,0,.1,1.011,1.642,1.642,0,0,0,.55.529,11.389,11.389,0,0,0,5.186,1.677,1.561,1.561,0,0,1,.679.183,1.283,1.283,0,0,1,.305,1.446,3.85,3.85,0,0,0-.326,1.534c.136.971,1.283,1.412,2.26,1.534a5.24,5.24,0,0,0,3.93-.76,6.061,6.061,0,0,0,1.622-2.437c2.668-6.109,3.6-12.9,6.306-19.005a3.864,3.864,0,0,0,.407-1.269,1.262,1.262,0,0,0-.5-1.174c-.5-.312-1.283-.136-1.622-.618-.17-.251-.149-.584-.3-.842-.312-.557-1.127-.489-1.69-.787-.434-.238-.74-.679-1.222-.808a1.561,1.561,0,0,0-1.276.55c-1.582,1.48-2.416,3.577-3.3,5.559a66.014,66.014,0,0,1-4.751,8.763c.21-.326-1-2.8-1.48-2.9-.828-.17-1.9,1.29-2.349,1.839a11.647,11.647,0,0,0-2.532,5.973Z" transform="translate(-348.14 -205.818)" fill="#0a5de9"/>
    <rect id="Rectangle_597" data-name="Rectangle 597" width="52.964" height="52.964" transform="translate(631.816 364.015)" fill="#fff"/>
    <path id="Path_38932" data-name="Path 38932" d="M1014,606.221V599.27H996.64v31.291h33.9V606.221Zm-10.419,20.858h-3.468V623.6h3.468Zm0-6.951h-3.468v-3.475h3.468Zm0-6.951h-3.468V609.7h3.468Zm0-6.957h-3.468v-3.482h3.468Zm6.944,20.858h-3.462V623.6h3.469Zm0-6.951h-3.462v-3.475h3.469Zm0-6.951h-3.462V609.7h3.469Zm0-6.957h-3.462v-3.482h3.469Zm16.548,20.858H1014V623.6h3.469v-3.475H1014v-3.475h3.469v-3.482H1014V609.7h13.073Zm-3.041-13.9h-3.468v3.482h3.468Zm0,6.951h-3.468v3.482h3.468Z" transform="translate(-355.294 -224.422)" fill="#0a5de9"/>
    <path id="Path_38933" data-name="Path 38933" d="M1058.265,625.023a21.4,21.4,0,0,0-2.511,2.634,5.245,5.245,0,0,0-1.154,3.394,1.744,1.744,0,0,0,.326.991.848.848,0,0,0,.943.292,1.357,1.357,0,0,0,.462-.414,21.712,21.712,0,0,1,1.561-1.7c.2-.2.462-.407.733-.333a.773.773,0,0,1,.319.21,2.157,2.157,0,0,1,.679,1.025,2.429,2.429,0,0,1-.719,1.975,5.117,5.117,0,0,0-1.215,1.8.766.766,0,0,0,0,.577.943.943,0,0,0,.36.312,5.24,5.24,0,0,0,4.392.285c.943-.373,1.758-1.025,2.715-1.357a6.524,6.524,0,0,0,1.2-.448,2.471,2.471,0,0,0,1.066-1.588,6.785,6.785,0,0,0,.075-1.962,22.4,22.4,0,0,0-1.636-7.4.883.883,0,0,0-.265-.394.931.931,0,0,0-.448-.129c-1.188-.122-3.143-.733-4.29-.292a2.931,2.931,0,0,0-1.011.9C1059.582,623.646,1058.265,624.711,1058.265,625.023Z" transform="translate(-373.912 -231.835)" fill="#a1616a"/>
    <path id="Path_38934" data-name="Path 38934" d="M1051.51,604.167c0-1.14-1.412-3.876.821-4.073,0-1.208-1.717-1.968-1.405-3.245.109-.434.455-.781.509-1.215.143-1.242-2.1-1.914-1.731-3.109.136-.455.631-.733.74-1.195.251-1.073-1.67-1.554-1.7-2.654,0-.373.2-.726.19-1.093,0-.468-.407-.821-.631-1.222-.577-1.039-.3-2.647-1.357-3.177.679.054.943-.984.645-1.622s-.882-1.188-.882-1.894a3.016,3.016,0,0,0,0-.781c-.2-.679-1.31-.726-1.493-1.405a7.177,7.177,0,0,1,0-.767c-.068-.529-.611-.855-1.12-1.011a4.453,4.453,0,0,1-1.493-.529c-.326-.251-.679-.679-1.052-.441-.129.075-.2.224-.3.339-.414.482-1.208.271-1.738-.088a7.187,7.187,0,0,1-2.661-4.792c-.339-1.846-.319-3.754-.726-5.586a12.8,12.8,0,0,0-.5-1.67,8.647,8.647,0,0,1-.787-1.67c-.081-1.066,2.131-.339,2.973-.231a13.19,13.19,0,0,1,2.416.455,25.523,25.523,0,0,1,2.464,1.079c3.394,1.487,7.412,1.67,10.114,4.161.889.821,1.636,1.894,2.783,2.26a14.219,14.219,0,0,1,1.561.407c1.283.6,1.48,2.3,2.179,3.53a7.544,7.544,0,0,1,.577,1.018,4.016,4.016,0,0,1,.183,1.3l.095,3.224a119.077,119.077,0,0,1-.258,16.182,13.355,13.355,0,0,0,.061,5.294c.136.462.333.9.448,1.358a9.239,9.239,0,0,1,.177,1.677l.075,2.084a.5.5,0,0,1-.665.618c-2.912-.258-5.844-1.9-8.593-.91" transform="translate(-367.564 -212.031)" fill="#464353"/>
    <path id="Path_38935" data-name="Path 38935" d="M979.291,611.854a.9.9,0,0,0-.326.271,2.315,2.315,0,0,0,0,2.756.928.928,0,0,1,.163.271.8.8,0,0,1-.081.462,1.527,1.527,0,0,0,.21,1.711c.21.177.5.265.631.5.238.394-.1.9-.041,1.358.068.6.781.9,1.358.977a1.446,1.446,0,0,0,1.324-.353,1.1,1.1,0,0,0,0-1.2,3.217,3.217,0,0,0-.9-.9,1.358,1.358,0,0,0,1.283-1.242,1.927,1.927,0,0,0-.774-1.69c-.122-.1-.271-.2-.305-.367s.129-.387.278-.543c.679-.679,1.2-2.342-.075-2.715a3.143,3.143,0,0,0-1.358.061c-.326.1-.326.3-.577.434S979.576,611.711,979.291,611.854Z" transform="translate(-349.47 -228.223)" fill="#a1616a"/>
    <path id="Path_38936" data-name="Path 38936" d="M996.869,543.14a2.24,2.24,0,0,0-1.724.869,4.961,4.961,0,0,0-.72,2.308,20.232,20.232,0,0,1-2.715,7.371" transform="translate(-353.71 -206.391)" opacity="0.1"/>
    <path id="Path_38937" data-name="Path 38937" d="M1000.4,545.88a2.634,2.634,0,0,0-2.254,1.357,7.534,7.534,0,0,0-.57,2.3,12.5,12.5,0,0,1-2.26,4.826" transform="translate(-354.87 -207.271)" opacity="0.1"/>
    <path id="Path_38938" data-name="Path 38938" d="M342.235,606.2c.394,4.29-2.844,8.444-1.9,12.639.2.9.591,1.744.733,2.647.387,2.491-1.1,4.853-2.518,6.937L326.372,646.3a11.585,11.585,0,0,1-1.744,2.152c-2.335,2.036-5.824,1.853-8.885,2.471a15.238,15.238,0,0,0-5.946,2.634.387.387,0,0,0-.081.536,5.125,5.125,0,0,0,4.426,2.077c.319.421,0,1.039-.441,1.358-.679.455-1.554.57-1.683,1.683a1.819,1.819,0,0,0,.224,1.113,3.441,3.441,0,0,0,2.131,1.48c4.215,1.29,8.776-.971,11.926-4.073s5.43-6.971,8.525-10.114c1.717-1.731,3.665-3.224,5.43-4.907,3.53-3.353,6.265-7.466,8.912-11.539a12.808,12.808,0,0,0,1.928-3.923c.326-1.4.176-2.871.557-4.256.489-1.805,1.819-3.251,2.919-4.751a15.772,15.772,0,0,0,3.319-10.283c-.285-3.665-2.552-7.29-6.014-8.532a5.383,5.383,0,0,0-3.394-.211,8.193,8.193,0,0,0-3.435,2.715l-2.308,2.674a6.163,6.163,0,0,0-1.358,2.036,2.138,2.138,0,0,0,.475,2.274" transform="translate(-134.607 -224.346)" fill="#fbbebe"/>
    <path id="Path_38939" data-name="Path 38939" d="M342.235,606.2c.394,4.29-2.844,8.444-1.9,12.639.2.9.591,1.744.733,2.647.387,2.491-1.1,4.853-2.518,6.937L326.372,646.3a11.585,11.585,0,0,1-1.744,2.152c-2.335,2.036-5.824,1.853-8.885,2.471a15.238,15.238,0,0,0-5.946,2.634.387.387,0,0,0-.081.536,5.125,5.125,0,0,0,4.426,2.077c.319.421,0,1.039-.441,1.358-.679.455-1.554.57-1.683,1.683a1.819,1.819,0,0,0,.224,1.113,3.441,3.441,0,0,0,2.131,1.48c4.215,1.29,8.776-.971,11.926-4.073s5.43-6.971,8.525-10.114c1.717-1.731,3.665-3.224,5.43-4.907,3.53-3.353,6.265-7.466,8.912-11.539a12.808,12.808,0,0,0,1.928-3.923c.326-1.4.176-2.871.557-4.256.489-1.805,1.819-3.251,2.919-4.751a15.772,15.772,0,0,0,3.319-10.283c-.285-3.665-2.552-7.29-6.014-8.532a5.383,5.383,0,0,0-3.394-.211,8.193,8.193,0,0,0-3.435,2.715l-2.308,2.674a6.163,6.163,0,0,0-1.358,2.036,2.138,2.138,0,0,0,.475,2.274" transform="translate(-134.607 -224.346)" opacity="0.05"/>
    <path id="Path_38940" data-name="Path 38940" d="M217.969,623.466c.679,2.145,1.358,4.29,2.179,6.38a53.991,53.991,0,0,0,5.641,10.29,74.131,74.131,0,0,0,4.663,6.109c2.077,2.45,4.4,4.914,5.131,8.043a40.737,40.737,0,0,1,.462,5.545,6.772,6.772,0,0,0,2.274,4.914,8.451,8.451,0,0,0,3.747,1.235c.937.149,2.111.2,2.6-.618a2.315,2.315,0,0,0,.258-1.073l.231-2.715c.048-.584.251-1.358.835-1.358s.882.753,1.358,1.1a1.473,1.473,0,0,0,2.036-.679,3.394,3.394,0,0,0,.054-2.376,11.281,11.281,0,0,0-5.79-7.175,17.4,17.4,0,0,1-2.824-1.473,9.6,9.6,0,0,1-2.22-2.8c-5.131-8.451-10.29-16.969-13.915-26.139a19.337,19.337,0,0,1-1.432-5.152,33.262,33.262,0,0,1,.224-5.43,31.081,31.081,0,0,0-.9-9.693,7.623,7.623,0,0,0-.93-2.355c-1.486-2.267-5-2.6-7.208-1.039a7.426,7.426,0,0,0-2.864,5.24c-.163,1.826.9,3.733,1.432,5.43Q215.505,615.572,217.969,623.466Z" transform="translate(-103.102 -223.388)" fill="#a1616a"/>
    <path id="Path_38941" data-name="Path 38941" d="M217.969,623.466c.679,2.145,1.358,4.29,2.179,6.38a53.991,53.991,0,0,0,5.641,10.29,74.131,74.131,0,0,0,4.663,6.109c2.077,2.45,4.4,4.914,5.131,8.043a40.737,40.737,0,0,1,.462,5.545,6.772,6.772,0,0,0,2.274,4.914,8.451,8.451,0,0,0,3.747,1.235c.937.149,2.111.2,2.6-.618a2.315,2.315,0,0,0,.258-1.073l.231-2.715c.048-.584.251-1.358.835-1.358s.882.753,1.358,1.1a1.473,1.473,0,0,0,2.036-.679,3.394,3.394,0,0,0,.054-2.376,11.281,11.281,0,0,0-5.79-7.175,17.4,17.4,0,0,1-2.824-1.473,9.6,9.6,0,0,1-2.22-2.8c-5.131-8.451-10.29-16.969-13.915-26.139a19.337,19.337,0,0,1-1.432-5.152,33.262,33.262,0,0,1,.224-5.43,31.081,31.081,0,0,0-.9-9.693,7.623,7.623,0,0,0-.93-2.355c-1.486-2.267-5-2.6-7.208-1.039a7.426,7.426,0,0,0-2.864,5.24c-.163,1.826.9,3.733,1.432,5.43Q215.505,615.572,217.969,623.466Z" transform="translate(-103.102 -223.388)" opacity="0.05"/>
    <path id="Path_38942" data-name="Path 38942" d="M367.711,752.842c-2.661,1.622-5.973,1.717-9.068,1.358-.5-.061-1.086-.1-1.405.285-.462.557.081,1.358.645,1.833a13.494,13.494,0,0,0,6.231,2.559,42.5,42.5,0,0,0,6.109.407,103.285,103.285,0,0,0,16.65-.618,2.206,2.206,0,0,0,.91-.265,1.724,1.724,0,0,0,.679-1.045,4.161,4.161,0,0,0-1.453-3.964,12.218,12.218,0,0,0-3.883-2.084l-4.833-1.88c-1.134-.441-2.959-1.615-4.188-1.52C371.824,748.057,369.632,751.715,367.711,752.842Z" transform="translate(-149.841 -272.168)" fill="#3f3d56"/>
    <path id="Path_38943" data-name="Path 38943" d="M385.94,768.834a11.872,11.872,0,0,1-8.111,3.027c-.76,0-1.819.142-1.819.9a1.2,1.2,0,0,0,.217.631,7.467,7.467,0,0,0,4.195,3.285,14.937,14.937,0,0,0,5.064.319l4.955-.258c.937-.047,1.88-.1,2.81-.21s1.941-.305,2.912-.455a38.841,38.841,0,0,1,7.215-.339,2.1,2.1,0,0,0,1.778-.475c.441-.557.183-1.358.041-2.036-.3-1.432,0-2.939-.278-4.385-.475-2.525-2.647-4.466-5.057-5.383-2.226-.849-6.177-1.819-8.288-.407C389.307,764.551,387.943,767.022,385.94,768.834Z" transform="translate(-155.927 -276.804)" fill="#3f3d56"/>
    <path id="Path_38944" data-name="Path 38944" d="M374.484,664.459c-2.036,2.681-4.073,5.776-3.6,9.089.272,1.785,1.269,3.36,2,5.016a35.357,35.357,0,0,1,2.036,7.046c.753,3.509,1.507,7.025,1.975,10.582a66.084,66.084,0,0,1,.441,12.15,4.1,4.1,0,0,1-.848,2.715c-.272.271-.624.5-.74.862a1.459,1.459,0,0,0,.156,1.018,11.274,11.274,0,0,0,6.041,5.559,23.139,23.139,0,0,0,8.213,1.534,2.308,2.308,0,0,0,1.1-.143,2.118,2.118,0,0,0,.848-.971c2.036-3.869.9-8.539.937-12.9,0-3.645.882-7.256.726-10.9-.129-2.919-.91-5.77-1.195-8.681-.468-4.751.407-9.571,1.283-14.288.679-3.611,1.358-7.229,2.206-10.806a20.607,20.607,0,0,1,2.335-6.272c.95-1.5,2.24-2.756,3.326-4.168a18.917,18.917,0,0,0,3.72-13.826c-.068-.489-6.991,1.751-7.589,2.036a23.526,23.526,0,0,0-6.788,4.351,56.188,56.188,0,0,0-4.263,5.267q-2.973,3.618-5.851,7.276Q377.675,660.2,374.484,664.459Z" transform="translate(-154.259 -236.545)" fill="#464353"/>
    <path id="Path_38945" data-name="Path 38945" d="M374.484,664.459c-2.036,2.681-4.073,5.776-3.6,9.089.272,1.785,1.269,3.36,2,5.016a35.357,35.357,0,0,1,2.036,7.046c.753,3.509,1.507,7.025,1.975,10.582a66.084,66.084,0,0,1,.441,12.15,4.1,4.1,0,0,1-.848,2.715c-.272.271-.624.5-.74.862a1.459,1.459,0,0,0,.156,1.018,11.274,11.274,0,0,0,6.041,5.559,23.139,23.139,0,0,0,8.213,1.534,2.308,2.308,0,0,0,1.1-.143,2.118,2.118,0,0,0,.848-.971c2.036-3.869.9-8.539.937-12.9,0-3.645.882-7.256.726-10.9-.129-2.919-.91-5.77-1.195-8.681-.468-4.751.407-9.571,1.283-14.288.679-3.611,1.358-7.229,2.206-10.806a20.607,20.607,0,0,1,2.335-6.272c.95-1.5,2.24-2.756,3.326-4.168a18.917,18.917,0,0,0,3.72-13.826c-.068-.489-6.991,1.751-7.589,2.036a23.526,23.526,0,0,0-6.788,4.351,56.188,56.188,0,0,0-4.263,5.267q-2.973,3.618-5.851,7.276Q377.675,660.2,374.484,664.459Z" transform="translate(-154.259 -236.545)" opacity="0.05"/>
    <path id="Path_38946" data-name="Path 38946" d="M393.173,642.179c.434,2.077,2.45,3.665,2.5,5.79.048,1.7-1.161,3.122-2.036,4.582a30.729,30.729,0,0,0-2.077,4.711,71.823,71.823,0,0,1-6.109,12.13c-1.161,1.846-2.464,3.849-2.192,6.014a8.878,8.878,0,0,0,1.052,2.871l3.489,6.93a19.891,19.891,0,0,1,1.778,4.378c.306,1.317.333,2.715.509,4.018.55,4.249,2.539,8.525,1.358,12.645-.1.353-.475.781-.753.536a13.2,13.2,0,0,1,1.989,6.788c-.041,1.283-.434,2.613.041,3.808a4.157,4.157,0,0,1,.529,1.453c0,.346-.163.679-.2,1.025a2.27,2.27,0,0,0,1.738,2.111c.937.312,1.955.292,2.9.57,1.819.543,3.109,2.1,4.67,3.19a9.809,9.809,0,0,0,5.355,1.744,1.358,1.358,0,0,0,.787-.156,1.29,1.29,0,0,0,.441-.957,5.322,5.322,0,0,0-1.921-4.622,2.138,2.138,0,0,1-.679-.747,1.812,1.812,0,0,1-.068-.835,61.915,61.915,0,0,0-.2-11.437,17.648,17.648,0,0,1-.177-3.638,14.871,14.871,0,0,0,.292-3.034,15.492,15.492,0,0,0-.93-2.9,20.315,20.315,0,0,1-.441-5.43,47.593,47.593,0,0,0-1.534-9.292,7.052,7.052,0,0,0-1.446-3.353c-.726-.76-1.9-1.48-1.622-2.491a2.876,2.876,0,0,1,.679-.991,3.978,3.978,0,0,0,.835-3.034,1.358,1.358,0,0,0,1.561-.733,24.435,24.435,0,0,0,12.272-13.955,4.535,4.535,0,0,1,.55-1.242,5.664,5.664,0,0,1,2.247-1.459c2.539-1.276,4.29-3.672,5.9-6.014a13.989,13.989,0,0,0,2.281-4.365,14.375,14.375,0,0,0,.312-3.15l.143-5.43a3.116,3.116,0,0,0-.1-1.066,2.714,2.714,0,0,0-.59-.869,10.541,10.541,0,0,0-5.8-3.122c-1.487-.265-3.007-.217-4.514-.339-2.919-.244-5.8-1.147-8.729-.937-4.588.339-8.675,3.523-10.86,7.582C395.6,640.91,394.8,642.131,393.173,642.179Z" transform="translate(-158.245 -234.886)" fill="#464353"/>
    <path id="Path_38947" data-name="Path 38947" d="M173,762.04a7.39,7.39,0,0,0,3.122.373c.075-.862,1.235-1.052,2.1-1.011a2.41,2.41,0,0,1,1.235.271c.217.136.38.339.591.482a2.54,2.54,0,0,0,1.222.312l4.493.38a13.455,13.455,0,0,0,5.96-.394,1.948,1.948,0,0,0,.957-.638c.509-.726,0-1.772-.679-2.3s-1.609-.774-2.315-1.317c-1.561-1.188-1.772-3.394-2.6-5.186a14.965,14.965,0,0,0-2.145-3.116,11.926,11.926,0,0,0-2.125-2.172c-1.8-1.3-3.876-1.276-5.987-1.459-1.493-.136-2.9-.224-3.971,1.1-1.324,1.643-.794,4.955-.713,6.917A49.507,49.507,0,0,0,173,762.04Z" transform="translate(-90.384 -271.618)" fill="#514e7f"/>
    <path id="Path_38948" data-name="Path 38948" d="M173,762.04a7.39,7.39,0,0,0,3.122.373c.075-.862,1.235-1.052,2.1-1.011a2.41,2.41,0,0,1,1.235.271c.217.136.38.339.591.482a2.54,2.54,0,0,0,1.222.312l4.493.38a13.455,13.455,0,0,0,5.96-.394,1.948,1.948,0,0,0,.957-.638c.509-.726,0-1.772-.679-2.3s-1.609-.774-2.315-1.317c-1.561-1.188-1.772-3.394-2.6-5.186a14.965,14.965,0,0,0-2.145-3.116,11.926,11.926,0,0,0-2.125-2.172c-1.8-1.3-3.876-1.276-5.987-1.459-1.493-.136-2.9-.224-3.971,1.1-1.324,1.643-.794,4.955-.713,6.917A49.507,49.507,0,0,0,173,762.04Z" transform="translate(-90.384 -271.618)" opacity="0.05"/>
    <path id="Path_38949" data-name="Path 38949" d="M171.186,639.138c-1.358.441-1.968,2.152-1.717,3.577a12.843,12.843,0,0,0,1.812,3.9c2,3.577,2.864,7.67,4.541,11.4,1.256,2.79,2.953,5.369,4.195,8.145s2.036,5.953,1.256,8.919c-.367,1.446-1.072,2.776-1.548,4.188a23.756,23.756,0,0,0-.91,4.751,90.059,90.059,0,0,0-.326,16.4,4.982,4.982,0,0,0,.414,1.941c.278.543.767,1.113.529,1.677-.1.224-.3.387-.4.611-.285.625.292,1.276.814,1.717a1.405,1.405,0,0,1-.882.679,2.084,2.084,0,0,1,.889,2.321c-.468.068-.5.781-.2,1.154s.753.611.964,1.032a1.446,1.446,0,0,1-.794,1.819,3.72,3.72,0,0,1-2.165.163,23.467,23.467,0,0,1-3.625-.794,3.258,3.258,0,0,1-1.113-.509,3.305,3.305,0,0,1-1-2.2,39.744,39.744,0,0,1-.251-6.788c.2-10.969,0-21.951-.475-32.913a37.687,37.687,0,0,0-3.231-12.788,65.616,65.616,0,0,0-3.149-6.109c-2.457-4.521-4.643-9.5-4.073-14.627.061-.55.265-1.215.808-1.3a1.174,1.174,0,0,1,.624.1,28.866,28.866,0,0,1,3.292,1.819,12.475,12.475,0,0,0,5.715,1.711Z" transform="translate(-86.748 -236.06)" fill="#464353"/>
    <path id="Path_38950" data-name="Path 38950" d="M171.186,639.138c-1.358.441-1.968,2.152-1.717,3.577a12.843,12.843,0,0,0,1.812,3.9c2,3.577,2.864,7.67,4.541,11.4,1.256,2.79,2.953,5.369,4.195,8.145s2.036,5.953,1.256,8.919c-.367,1.446-1.072,2.776-1.548,4.188a23.756,23.756,0,0,0-.91,4.751,90.059,90.059,0,0,0-.326,16.4,4.982,4.982,0,0,0,.414,1.941c.278.543.767,1.113.529,1.677-.1.224-.3.387-.4.611-.285.625.292,1.276.814,1.717a1.405,1.405,0,0,1-.882.679,2.084,2.084,0,0,1,.889,2.321c-.468.068-.5.781-.2,1.154s.753.611.964,1.032a1.446,1.446,0,0,1-.794,1.819,3.72,3.72,0,0,1-2.165.163,23.467,23.467,0,0,1-3.625-.794,3.258,3.258,0,0,1-1.113-.509,3.305,3.305,0,0,1-1-2.2,39.744,39.744,0,0,1-.251-6.788c.2-10.969,0-21.951-.475-32.913a37.687,37.687,0,0,0-3.231-12.788,65.616,65.616,0,0,0-3.149-6.109c-2.457-4.521-4.643-9.5-4.073-14.627.061-.55.265-1.215.808-1.3a1.174,1.174,0,0,1,.624.1,28.866,28.866,0,0,1,3.292,1.819,12.475,12.475,0,0,0,5.715,1.711Z" transform="translate(-86.748 -236.06)" opacity="0.05"/>
    <path id="Path_38951" data-name="Path 38951" d="M143.5,620.853a3.619,3.619,0,0,0-4.989.536,27.257,27.257,0,0,0-2.579,2.267,13.8,13.8,0,0,0-3.082,13.65A27.276,27.276,0,0,0,136.623,644l2.987,4.29c4.555,6.543,9.116,13.087,13.888,19.474a.733.733,0,0,0,.516.679c.176.048.387.041.5.183a.529.529,0,0,1,.061.292,4.432,4.432,0,0,1-.265,1.358.631.631,0,0,0-.054.468c.149.36.808.156,1.011.5a.539.539,0,0,1-.217.679.785.785,0,0,0-.373.679c.034.278.489.536.468.876,0,.19-.163.333-.278.482a1.229,1.229,0,0,0,.149,1.568c.312,3.122-1.357,6.075-1.717,9.2-.536,4.907,1.683,9.7,1.955,14.627a3.916,3.916,0,0,0,.305,1.615c.462.849,1.643,1.358,1.6,2.328a8.889,8.889,0,0,1-.333,1.174A9.442,9.442,0,0,0,157,706.14c0,.563-.475,1.235-1,1.018q.591,1.955,1.045,3.944l10.453.862a9.387,9.387,0,0,0-.1-2.824c-.217-1-.679-1.948-.91-2.953a3.482,3.482,0,0,1,.414-2.953,1.154,1.154,0,0,1-1.154-.95,4.656,4.656,0,0,1,0-1.622c.278-2.715-.869-5.43-.835-8.145.034-2.159.787-4.229,1.174-6.346.815-4.534-.034-9.455,1.982-13.575,1.222-2.5,2.912-5.267,1.541-7.684-.679-1.195-1.867-2.036-2.64-3.136a12.741,12.741,0,0,1-1.419-3.394c-1.615-5-4.215-9.6-6.5-14.336a15.091,15.091,0,0,1-1.4-3.767,19.147,19.147,0,0,1-.17-3.475,53.268,53.268,0,0,0-.387-6.245,4.552,4.552,0,0,0-2.389-4.073C151.284,624.152,147.2,622.8,143.5,620.853Z" transform="translate(-77.604 -231.113)" fill="#464353"/>
    <path id="Path_38952" data-name="Path 38952" d="M166.79,767.683a7.392,7.392,0,0,0,3.122.373c.081-.862,1.235-1.052,2.1-1.011a2.409,2.409,0,0,1,1.2.278c.217.136.38.339.6.482a2.5,2.5,0,0,0,1.222.312l4.487.38a13.49,13.49,0,0,0,5.966-.394,1.961,1.961,0,0,0,.95-.638c.509-.726,0-1.772-.679-2.3s-1.609-.774-2.321-1.317c-1.554-1.188-1.772-3.394-2.6-5.186a14.967,14.967,0,0,0-2.145-3.116,11.89,11.89,0,0,0-2.118-2.172c-1.806-1.3-3.876-1.276-5.987-1.459-1.5-.136-2.905-.224-3.971,1.1-1.358,1.643-.8,4.955-.719,6.917A50.432,50.432,0,0,0,166.79,767.683Z" transform="translate(-88.372 -273.434)" fill="#514e7f"/>
    <rect id="Rectangle_598" data-name="Rectangle 598" width="52.964" height="52.964" transform="translate(135.095 415.52)" fill="#fff"/>
    <path id="Path_38953" data-name="Path 38953" d="M298.051,689.046c0,6.041-2.83,9.842-7.3,9.842-2.287,0-4.032-1.222-4.337-3.034h-.326a4.751,4.751,0,0,1-4.7,2.925c-3.978,0-6.632-3.19-6.632-7.935,0-4.555,2.674-7.724,6.577-7.724a4.751,4.751,0,0,1,4.46,2.668h.326v-2.267h3.251v10.555a1.887,1.887,0,0,0,2.036,2.1c2.253,0,3.692-2.715,3.692-6.991,0-6.788-5.091-11.329-12.6-11.329s-12.727,5.43-12.727,13.087c0,7.84,5.24,12.849,13.4,12.849a24.58,24.58,0,0,0,4.432-.38,1.29,1.29,0,0,1,.543,2.518,22.561,22.561,0,0,1-5.1.557c-9.917,0-16.29-6.109-16.29-15.612,0-9.286,6.482-15.659,15.924-15.659C291.759,675.165,298.051,680.833,298.051,689.046Zm-19.786,1.873c0,3.014,1.412,4.84,3.72,4.84,2.43,0,3.964-1.873,3.964-4.84s-1.534-4.8-3.923-4.8-3.76,1.778-3.76,4.8Z" transform="translate(-120.826 -248.82)" fill="#0a5de9"/>
    <circle id="Ellipse_1904" data-name="Ellipse 1904" cx="10.351" cy="10.351" r="10.351" transform="translate(114.386 350.942)" fill="#a1616a"/>
    <path id="Path_38954" data-name="Path 38954" d="M211.705,582.874c-1.487,1.283-3.611,1.358-5.559,1.575a34.747,34.747,0,0,0-11.96,3.462,4.268,4.268,0,0,0-1.358.95,3.916,3.916,0,0,0-.679,1.48,9.788,9.788,0,0,0-.394,3.6,10.371,10.371,0,0,0,1,3.394,18.217,18.217,0,0,0,6.421,7.317,4.662,4.662,0,0,0,1.561.747c1.358.285,2.681-.509,4.018-.862a6.584,6.584,0,0,1,3.713.122c1.127.373,2.315,1.059,3.394.6a3.543,3.543,0,0,0,1.548-1.758,59.658,59.658,0,0,0,2.824-6.184,23.435,23.435,0,0,1,1.025-2.4c1.2-2.287,3.278-4.073,4.31-6.421a1.412,1.412,0,0,0,.1-1.208,1.677,1.677,0,0,0-.76-.584,18.144,18.144,0,0,1-4.134-3.245c-.679-.679-1.934-2.416-2.912-2.573C212.784,580.743,212.452,582.236,211.705,582.874Z" transform="translate(-96.729 -218.513)" fill="#a1616a"/>
    <path id="Path_38955" data-name="Path 38955" d="M197.7,607.3a6.176,6.176,0,0,1-3.916.048,43.227,43.227,0,0,1-9.842-2.864,5.268,5.268,0,0,1-2.416-1.853,5.926,5.926,0,0,1-.679-2.321l-.57-3.849a23.337,23.337,0,0,1,.176-3.95,1.154,1.154,0,0,0-.224-.862.93.93,0,0,0-.679-.21c-1.554,0-2.491,1.649-3.584,2.756a6.618,6.618,0,0,1-2.2,1.48c-1,.407-2.226.679-2.627,1.69-.17.414-.149.889-.319,1.3-.679,1.656-3.665,1.106-4.419,2.715-.217.462-.2,1.045-.563,1.412s-1.018.353-1.561.448c-2.158.353-3.211,2.851-5.057,4.025-1.554.991-3.557.971-5.227,1.744a20.008,20.008,0,0,1-2.715,1.357,12.826,12.826,0,0,1-3.149.156.849.849,0,0,0-.631.2.869.869,0,0,0-.1.679,19.053,19.053,0,0,0,11.777,14.75,4.152,4.152,0,0,1,1,.482c.943.679,1.106,2.22,2.172,2.715a2.246,2.246,0,0,0,2.267-.489,19.723,19.723,0,0,0,1.636-1.805,6.516,6.516,0,0,1,3.645-1.914c1.283-.2,2.715-.054,3.754-.842a11.536,11.536,0,0,0,1.181-1.263,7.405,7.405,0,0,1,2.715-1.6,27.153,27.153,0,0,1,8.485-1.792c2.715-.156,5.532.1,8.1-.794a4.75,4.75,0,0,0,1.806-1.018,5.431,5.431,0,0,0,1.208-2.1A16.013,16.013,0,0,0,197.7,607.3Z" transform="translate(-82.479 -221.905)" fill="#514e7f"/>
    <path id="Path_38956" data-name="Path 38956" d="M199.121,592.234c.767-.068,1.534,0,2.3,0,.9,0,1.792-.217,2.715-.224a6.693,6.693,0,0,1,6.313,4.806,1.222,1.222,0,0,1,.041.679.482.482,0,0,1-.523.353,11.471,11.471,0,0,0-1.161-2.328,6.591,6.591,0,0,0-3.475-2.416,9.02,9.02,0,0,0-4.276-.156c-.584.109-1.161.265-1.738.428l-2.817.76c-.509.136-1.018.278-1.514.462-.38.136-1.039.679-1.412.679-.509,0-.1-.441.129-.74a3.625,3.625,0,0,1,1.806-1.31,15.193,15.193,0,0,1,3.611-.991Z" transform="translate(-97.244 -222.09)" fill="#514e7f"/>
    <path id="Path_38957" data-name="Path 38957" d="M209.129,625.166c.679,2.145,1.358,4.29,2.179,6.38a53.988,53.988,0,0,0,5.647,10.29,74.149,74.149,0,0,0,4.663,6.109c2.077,2.45,4.4,4.914,5.131,8.043a40.737,40.737,0,0,1,.462,5.546,6.771,6.771,0,0,0,2.274,4.914,8.45,8.45,0,0,0,3.747,1.235c.937.149,2.111.2,2.6-.618a2.315,2.315,0,0,0,.258-1.073l.224-2.715c.054-.584.258-1.358.842-1.358s.882.753,1.358,1.1a1.473,1.473,0,0,0,2.036-.679,3.441,3.441,0,0,0,.054-2.376,11.281,11.281,0,0,0-5.776-7.181A17.4,17.4,0,0,1,232,651.313a9.5,9.5,0,0,1-2.22-2.8c-5.138-8.451-10.3-16.969-13.915-26.139a19.339,19.339,0,0,1-1.432-5.152,33.263,33.263,0,0,1,.224-5.43,31.08,31.08,0,0,0-.876-9.706,7.623,7.623,0,0,0-.93-2.355c-1.487-2.267-5-2.6-7.209-1.039a7.426,7.426,0,0,0-2.864,5.24c-.163,1.826.9,3.733,1.432,5.43Q206.671,617.272,209.129,625.166Z" transform="translate(-100.275 -223.928)" fill="#a1616a"/>
    <path id="Path_38958" data-name="Path 38958" d="M240.412,564.335c.081-.862-.679-1.643-1.568-2.192a21.886,21.886,0,0,1-2.661-1.629c-.787-.679-1.215-1.568-2-2.247a8.824,8.824,0,0,0-2.987-1.486,22.67,22.67,0,0,0-7.141-1.283,12.578,12.578,0,0,0-6.835,1.805,4.074,4.074,0,0,0-1.161,1.079,4.751,4.751,0,0,0-.563,1.717,33.939,33.939,0,0,1-1.785,5.43,12.6,12.6,0,0,1-3.394,5.484c-1.934,1.615-4.9,2.545-6.177,4.493a1.459,1.459,0,0,0-.278,1.256c.183.489.774.821,1.31,1.133,3.143,1.806,5.851,4.141,7.249,6.937a8.043,8.043,0,0,1-.638,8.654c-.726.95-1.731,2.077-1.018,3.034,1.079,1.453,4.806.624,5.661,2.158a3.068,3.068,0,0,1,.115,1.588c0,1.609,1.554,3.048,3.441,3.788a19.187,19.187,0,0,0,6.19,1.018,5.349,5.349,0,0,0,.156-4,1.6,1.6,0,0,1-.156-.91,2.185,2.185,0,0,1,.679-.876c2.274-2.145,1.792-5.3.428-7.846s-3.482-4.88-4.269-7.562a3.84,3.84,0,0,1,.679-3.937,13.711,13.711,0,0,1,1.948-1.425,7.405,7.405,0,0,0,2.715-3.394c.631-1.765.536-3.889,2.4-5.057s4.269-.787,6.231-1.541A6.678,6.678,0,0,0,240.412,564.335Z" transform="translate(-100.613 -210.36)" fill="#464353"/>
    <circle id="Ellipse_1905" data-name="Ellipse 1905" cx="11.288" cy="11.288" r="11.288" transform="translate(186.552 346.346)" fill="#fbbebe"/>
    <path id="Path_38959" data-name="Path 38959" d="M353.107,572.185a14.634,14.634,0,0,0,9.367,6.55l-.848,3.082c-1.466,5.308-3.122,10.928-7.222,14.607a6.828,6.828,0,0,0-1.147-5.281,20,20,0,0,0-3.828-4l-6.5-5.654a1.772,1.772,0,0,1-.489-.543,1.656,1.656,0,0,1,0-1.235c.828-2.579,3.19-4.188,5.1-5.926a18,18,0,0,0,2.573-2.993C351.451,568.955,352.286,570.808,353.107,572.185Z" transform="translate(-145.106 -215.026)" fill="#fbbebe"/>
    <path id="Path_38960" data-name="Path 38960" d="M357.934,589.016a6.108,6.108,0,0,1-.333,2.491,1.751,1.751,0,0,1-2.036,1.045c.238-.536-.387-1.147-.971-1.079a1.826,1.826,0,0,0-1.29,1.093,4.072,4.072,0,0,0-.373,2.525c.183,1.073.8,2.1.638,3.17-.129.889-.787,1.778-.434,2.613a4.2,4.2,0,0,0,.842,1,2.851,2.851,0,0,1-.305,3.91l8.824.17a6.19,6.19,0,0,0,1.093,4.283,26.967,26.967,0,0,0,20.105,13.127,1.751,1.751,0,0,0-.421,2.674,2.475,2.475,0,0,0,2.824.163,21.426,21.426,0,0,0,2.423-1.812,7.406,7.406,0,0,1,4.969-1.357c1.106.1,2.172.455,3.278.516,3.258.176,6.061-2.172,9.177-3.129,2.287-.679,4.874-.679,6.788-2.131a2.691,2.691,0,0,0,1.263-2.62,4.269,4.269,0,0,0-.95-1.534,27.317,27.317,0,0,1-2.545-4.751,28.367,28.367,0,0,0-6.36-8.512,56.145,56.145,0,0,0-6.3-4.785,10.659,10.659,0,0,0-1.71-1.025,17.522,17.522,0,0,1-2.335-.95,13.027,13.027,0,0,1-2.423-2.715c-1.744-2.036-4.426-2.966-6.577-4.568-1.439-1.072-2.715-2.484-4.432-3.007-.835-.251-1.731-.272-2.566-.523-1.9-.577-3.285-2.267-5.152-2.946-1.473-.543-3.1-.4-4.663-.6a10.861,10.861,0,0,1-4.792-1.812,5.761,5.761,0,0,0-1.548-.91c-2.355-.679-2.545,3.679-2.769,5.2A43.586,43.586,0,0,0,357.934,589.016Z" transform="translate(-148.494 -217.257)" fill="#3f3d56"/>
    <path id="Path_38961" data-name="Path 38961" d="M348.279,613.038c.394,4.283-2.844,8.437-1.9,12.639.2.9.584,1.745.726,2.647.394,2.491-1.093,4.846-2.511,6.93l-12.218,17.879a10.861,10.861,0,0,1-1.738,2.152c-2.335,2.07-5.824,1.853-8.885,2.478A15.21,15.21,0,0,0,315.8,660.4a.387.387,0,0,0-.075.529A5.1,5.1,0,0,0,320.151,663c.319.421,0,1.045-.441,1.358-.679.455-1.554.577-1.683,1.683a1.887,1.887,0,0,0,.217,1.12,3.476,3.476,0,0,0,2.138,1.48c4.215,1.29,8.77-.977,11.926-4.073s5.43-6.971,8.525-10.114c1.717-1.738,3.665-3.224,5.43-4.907a64.168,64.168,0,0,0,8.912-11.539,12.842,12.842,0,0,0,1.928-3.93c.326-1.391.176-2.871.557-4.249.489-1.812,1.812-3.258,2.919-4.751a15.791,15.791,0,0,0,3.319-10.29c-.285-3.672-2.559-7.283-6.014-8.532a5.383,5.383,0,0,0-3.394-.2,8.087,8.087,0,0,0-3.435,2.715l-2.315,2.674a6.352,6.352,0,0,0-1.358,2.036,2.138,2.138,0,0,0,.475,2.274" transform="translate(-136.538 -226.542)" fill="#fbbebe"/>
    <path id="Path_38962" data-name="Path 38962" d="M369.071,590.431c-1.6.1-3.394.251-4.5,1.358a6.285,6.285,0,0,0-1.127,1.778,17.568,17.568,0,0,0-2.247,7.066,31.856,31.856,0,0,0,.815,5.905c.251,1.636-.387,3.306-.509,4.962a33.88,33.88,0,0,0,6.408-2.464,21.426,21.426,0,0,1,3.754-1.948c1.907-.638,5.125.455,6.93,1.357.1-1.276-.855-3.5-.753-4.751a5.205,5.205,0,0,1,.285-1.581,9.426,9.426,0,0,1,.957-1.527,6.251,6.251,0,0,0-.563-7.338c-1.609-1.812-4.134-2.491-6.543-2.776a28.616,28.616,0,0,0-4.575-.156" transform="translate(-151.167 -221.536)" fill="#3f3d56"/>
    <path id="Path_38963" data-name="Path 38963" d="M319.994,552.9l-.258-2.125c1.785.455,3.475-1.052,4.616-2.62s2.192-3.394,3.923-4.073c2.111-.794,4.344.475,6.36,1.52a19.909,19.909,0,0,0,7.3,2.416,5.163,5.163,0,0,1,1.208.2c1.31.468,1.934,2.111,2.125,3.6a14.14,14.14,0,0,0,.781,4.412c.5,1,1.358,1.758,1.846,2.715,1.358,2.668.048,6.319,1.507,8.939l-3.618-3.312c-.333-.305-.8-.625-1.161-.367s-.312.679-.434,1a1.894,1.894,0,0,1-2.573.937,7.052,7.052,0,0,1-2.3-2.1,14.064,14.064,0,0,0-5.742-4.351,7.337,7.337,0,0,0-6.075.36c-1.69.957-2.925,3.177-5,3.251-2.837.109-4.018-5.172-5.328-7.256a2.572,2.572,0,0,0,.747-3.2C318.113,552.77,319.953,552.574,319.994,552.9Z" transform="translate(-137.025 -206.614)" fill="#464353"/>
    <path id="Path_38964" data-name="Path 38964" d="M724.7,745.985c-.55-2.328-.882-4.364-.882-4.364a9.042,9.042,0,0,0-1.011-4.432v-.638h0v-4.683a15.482,15.482,0,0,1,1.181-2.45c.842-1.466,0-6.856,0-6.856s-3.122-7.6-2.369-12.415-6.408-21.4-6.408-21.4a21.139,21.139,0,0,1,.679-4.751,3.431,3.431,0,0,0,.088-.991.729.729,0,0,0,0-.122v.041c-.109-3.177-2.62-9.136-2.62-9.136l.339-11.349a33.424,33.424,0,0,0-1.011-15.686c-.916-3.136-1.5-5.641-1.873-7.582-.041-.217-.081-.428-.115-.631,5.383-.821,9.5-1.507,9.5-1.507s-3.122-13.066-5.233-15.354-3.794-9.469-3.794-9.469-1.1-9.231.679-11.926,2.036-7.351,2.036-7.351,4.073-2.939,4.555-4.249a21.52,21.52,0,0,0,1.358-5.8c0-1.554-.509-2.939-.339-3.76s-1.181-3.916-.5-5.389a3.944,3.944,0,0,0,.265-1.419.088.088,0,0,0,0-.041h0a20.169,20.169,0,0,0-.36-3.835,10.86,10.86,0,0,0-4-2.145l-.088-.346-.231-.916a3.1,3.1,0,0,0-.4-.238v-1.7l.631-2.987c1.249-5.179-5.674-5.953-5.674-5.953a3.651,3.651,0,0,0-1.962-1.724c-1.358-.489-.231,7.806.421,8.335a27,27,0,0,1,2.715,4.276h0l.122.21a2.761,2.761,0,0,0-.319.333l.265,1.8.041.278a7.39,7.39,0,0,0-1.106,1.88,4.012,4.012,0,0,1,1.011,2.946,9.23,9.23,0,0,0,.421,3.591c-.075-.088-.964-1.052-1.853-.815s-3.394.977-3.394.977-1.86.326-1.69.733-1.263,2.206-1.263,2.206l-4.989-4.751c-.054-.143-.1-.285-.149-.428a11.41,11.41,0,0,1-.428-2.036,11.081,11.081,0,0,0,1.588-.509,3.44,3.44,0,0,0,1.358-.882,5.389,5.389,0,0,0,.8-2.152,29.873,29.873,0,0,1,1.853-4.127,13.426,13.426,0,0,0,.964-7.365,4.9,4.9,0,0,0-.76-2.172c-.815-1.12-2.294-1.575-3.394-2.471s-1.765-2.254-3.021-2.926a5.953,5.953,0,0,0-3.788-.326,20.241,20.241,0,0,0-7.066,2.566,3.633,3.633,0,0,1-2.369.781,3.2,3.2,0,0,1-1.7-1.249.335.335,0,0,1,0-.075l-.061-.061a8.939,8.939,0,0,0-.774,3.733v.8a1.547,1.547,0,0,1,0,.176h0a1.2,1.2,0,0,1-.041.265,1.922,1.922,0,0,1-.461.679,3,3,0,0,0-.407.557.6.6,0,0,1,.068-.2,2.946,2.946,0,0,0-.523,1.568,1.561,1.561,0,0,0,.38,1.127,5.43,5.43,0,0,0,.808.679,9.5,9.5,0,0,0-.143,1.656,9.652,9.652,0,0,0,4.7,8.233l.17.428a11.871,11.871,0,0,1,.9,5.43.917.917,0,0,1-.061.4l-.177.2h0s-8.24.081-10.182-1.677-4.894,4.29-4.894,4.29-2.953.577-3.543,0-4.073-.082-4.073-.082a7.467,7.467,0,0,0-5.145-1.873,15.119,15.119,0,0,0-3.781-2.1h0l-.1-.034h0a4.223,4.223,0,0,0-1.86-.231s-4.073-3.353-5.227-5.145-6.788-8.464-6.835-8.5v-.319l-.068-.971a3.805,3.805,0,0,1-.5.048,1.177,1.177,0,0,0-.115-.339,18.314,18.314,0,0,0-1.195-2.715s0-1.222.36-1.527-.149-4.8-.149-4.8-3.652-8.532-6.917-2.165c0,0-6.183,4.12-1,8.926,0,0,2.036,1,2.362,1.792.2.516.9,1.962,1.357,2.919l.211.428-.061.048.081.8v.312c-.977.55-1.636,1.1-1.48,1.52a8.934,8.934,0,0,1,.59,2.206s7.175,8.98,8.1,12.822c0,0,19.236,11.43,25.562,12.252l-1.093,5.715a45.2,45.2,0,0,0-.251,4.656c.081,1.222-.76,6.788-.76,6.788s-1.1,8.145-2.036,9.306-.76,6.048-.76,6.048a40.789,40.789,0,0,1-1.263,6.937,17.629,17.629,0,0,0-.251,6.944s-3.211,7.351,4.473,2.369c0,0,3.767-.231,8.145-.38v2.233c-.054,4.208-.081,10.012.109,14.4.339,7.758,2.715,23.078,2.715,23.078v7.711a10.788,10.788,0,0,0-.217,2.206,14.3,14.3,0,0,0,2.077,7.724l.591,5.145a21.313,21.313,0,0,1,1.412,5.43,2.677,2.677,0,0,1-.061.489,3.645,3.645,0,0,0-.068.787c-.075,2.335,1.358,7.928,1.358,7.928s.088,5.634.93,5.96c.72.278-.964,3.251-1.466,4.073a1.361,1.361,0,0,1-.034-.163c-.061.109-.1.17-.1.17a3.958,3.958,0,0,0-.265,1.425,2.036,2.036,0,0,0,.937,1.982c1.6.984,2.464,1.8,1.106,2.125a13.477,13.477,0,0,0-1.487.312c0-.061-.054-.129-.075-.19a.909.909,0,0,0-.529.943,4.174,4.174,0,0,0,.509,1.907,20.363,20.363,0,0,0,2.281,4.168l.679-.075a3.2,3.2,0,0,1-.38.679,2.626,2.626,0,0,1-.95.842,3.04,3.04,0,0,1-1.154.4,3.217,3.217,0,0,0-2.389,1.161c-.842,1.086-1.357,2.573.292,3.876l6.034,2.077s10.378,1.358,9.829-.977-.882-4.364-.882-4.364a9.211,9.211,0,0,0-.848-4.134,4.079,4.079,0,0,0-.367-.611l.367-.041s.76-5.145,1.772-6.109c.238-.224.292-.4.231-.536.109-.278-.156-.441-.5-.536l-.075.2a5.1,5.1,0,0,0-1-.109s-.339-2.715.753-3.679a1.038,1.038,0,0,0,.217-.8,4.618,4.618,0,0,0-.115-1.1l-.041.068a39.2,39.2,0,0,0-2.423-6.333s-.081-2.45.591-3.435S692.768,704,692.768,704s.251-5.96-.509-8.736.93-6.048.93-6.048V689s-.041-.366-.1-.943v.061c-.17-1.582-.489-4.439-.726-5.756-.339-1.88.081-10.86.081-10.86l1.52-3.835,2.715,6.611,2.864,8.824A7.5,7.5,0,0,1,701,686.851v.278a4.413,4.413,0,0,0,0,.591,5.266,5.266,0,0,0,.876,3.143s.76,4.168,1.941,5.227a4.705,4.705,0,0,1,1.181,3.1s1.432,6.048,2.111,7.107c.57.9.6,3.353.591,4.073h0v.224s.2,2.159.19,3.978v.631a6.32,6.32,0,0,1-.177,1.466v-.217a15.109,15.109,0,0,0-.434,3.767c-.041,2.172.292,4.751,1.609,6.251,2.281,2.613,3.713,2.287,3.713,2.287s-1.1,3.265-2.45,3.923a.824.824,0,0,0-.143.088.378.378,0,0,0-.034-.19,1.6,1.6,0,0,0-.394,1.222,8.743,8.743,0,0,0,1.67,4.84,2.674,2.674,0,0,0,1.14.679l-.21.129a4.746,4.746,0,0,1-.468.224,2.211,2.211,0,0,1-.679.176,3.218,3.218,0,0,0-2.389,1.161c-.842,1.086-1.358,2.573.292,3.876l6.034,2.077S725.22,748.347,724.7,745.985Z" transform="translate(-237.031 -207.385)" fill="url(#linear-gradient)"/>
    <path id="Path_38965" data-name="Path 38965" d="M708.567,840.782l-5.844-2.077c-1.609-1.3-1.093-2.79-.278-3.876a3.075,3.075,0,0,1,2.308-1.161,2.857,2.857,0,0,0,1.12-.4,2.647,2.647,0,0,0,.923-.842,4.3,4.3,0,0,0,.679-2.26s6.414-1.873,8.145,0a4.793,4.793,0,0,1,.781,1.14,9.5,9.5,0,0,1,.815,4.134s.326,2.036.855,4.364S708.567,840.782,708.567,840.782Z" transform="translate(-260.541 -298.326)" fill="#2d293d"/>
    <path id="Path_38966" data-name="Path 38966" d="M750.678,836.58,744.84,834.5c-1.615-1.3-1.1-2.79-.285-3.869a3.068,3.068,0,0,1,2.315-1.167,2.11,2.11,0,0,0,.679-.177,3.431,3.431,0,0,0,.448-.224,3.694,3.694,0,0,0,1.6-3.1s6.408-1.88,8.145,0a4.543,4.543,0,0,1,.611.835,9.326,9.326,0,0,1,.984,4.439s.326,2.036.855,4.364S750.678,836.58,750.678,836.58Z" transform="translate(-274.068 -296.976)" fill="#2d293d"/>
    <path id="Path_38967" data-name="Path 38967" d="M718.051,830.165a4.79,4.79,0,0,1,.781,1.14h0l-9.611,1.113a4.3,4.3,0,0,0,.679-2.26S716.3,828.292,718.051,830.165Z" transform="translate(-262.965 -298.325)" opacity="0.1"/>
    <path id="Path_38968" data-name="Path 38968" d="M760.13,826.753v1.8c-1.493,2.464-8.722,1.928-10.82.679a3.408,3.408,0,0,0,.448-.224,3.694,3.694,0,0,0,1.6-3.1s6.407-1.88,8.145,0a4.537,4.537,0,0,1,.631.849Z" transform="translate(-275.843 -296.956)" opacity="0.1"/>
    <path id="Path_38969" data-name="Path 38969" d="M743.834,770.955a16.032,16.032,0,0,0-1.147,2.45v6.455c-1.629,2.715-10.127,1.8-11.268.326s-2.369-5.308-1.066-5.96,2.369-3.923,2.369-3.923-1.357.326-3.591-2.287-1.548-8.41-1.14-9.8,0-6.041,0-6.041.081-3.265-.57-4.331-2.036-7.107-2.036-7.107a4.824,4.824,0,0,0-1.14-3.1c-1.14-1.066-1.88-5.227-1.88-5.227a5.355,5.355,0,0,1-.815-3.509c.244-2.036-1.391-4.249-1.391-4.249l-2.776-8.824-2.613-6.618-1.466,3.835s-.414,8.987-.081,10.86.815,6.855.815,6.855-1.636,3.272-.9,6.048.489,8.736.489,8.736.733,12.333.081,13.317-.57,3.394-.57,3.394,3.346,7.188,2.281,8.145-.733,3.679-.733,3.679,2.287,0,1.31.977-1.717,6.109-1.717,6.109l-9.889,1.249a20.909,20.909,0,0,1-2.213-4.168c-1.3-3.021.244-2.715,1.561-3.021s.482-1.14-1.072-2.125-.679-3.183-.679-3.183,2.369-4,1.554-4.331-.9-5.96-.9-5.96-1.629-6.7-1.222-8.491-1.31-6.109-1.31-6.109l-.57-5.145a14.146,14.146,0,0,1-1.765-9.734V722.2s-2.287-15.354-2.62-23.078c-.2-4.969-.149-11.75-.081-15.985.041-2.369.081-3.944.081-3.944l35.3-3.672a29.24,29.24,0,0,0,.645,5.24c.36,1.934.923,4.446,1.806,7.582a34.481,34.481,0,0,1,.984,15.679l-.326,11.349s3.1,7.6,2.45,10.181a21.556,21.556,0,0,0-.679,4.751s6.944,16.582,6.211,21.4,2.294,12.381,2.294,12.381S744.648,769.516,743.834,770.955Z" transform="translate(-258.4 -248.916)" fill="#464353"/>
    <path id="Path_38970" data-name="Path 38970" d="M737.22,752.762l10.711-1.432S741.876,757.534,737.22,752.762Z" transform="translate(-271.96 -273.269)" opacity="0.05"/>
    <path id="Path_38971" data-name="Path 38971" d="M749.825,735.87s.373,3.794-1.955,5.227C747.87,741.1,752.031,740.445,749.825,735.87Z" transform="translate(-275.381 -268.303)" opacity="0.1"/>
    <path id="Path_38972" data-name="Path 38972" d="M743.786,718.06s-8.973,7.392-12.218,6.788S743.786,718.06,743.786,718.06Z" transform="translate(-270 -262.581)" opacity="0.1"/>
    <path id="Path_38973" data-name="Path 38973" d="M714.276,758.55s-6.788,1.554-7.018,4.29S714.276,758.55,714.276,758.55Z" transform="translate(-262.333 -275.588)" opacity="0.1"/>
    <path id="Path_38974" data-name="Path 38974" d="M716.315,808.72s-9.632,1.8-6.9,3.027a46.693,46.693,0,0,0,7.229,2.2S719.749,814.109,716.315,808.72Z" transform="translate(-262.872 -291.704)" opacity="0.05"/>
    <g id="Group_1122" data-name="Group 1122" transform="translate(436.573 429.971)" opacity="0.05">
      <path id="Path_38975" data-name="Path 38975" d="M706.2,815.338a1.908,1.908,0,0,1-.882-1.4l-.1.177s-.9,2.2.679,3.183c.176.109.346.224.5.333.285-.054.6-.1.889-.17C708.578,817.164,707.75,816.343,706.2,815.338Z" transform="translate(-698.17 -723.352)"/>
      <path id="Path_38976" data-name="Path 38976" d="M724.853,814.283c.265-.244.251-.876.095-1.683a4.555,4.555,0,0,0-.55,2.369,1.815,1.815,0,0,1,.455-.686Z" transform="translate(-704.413 -722.921)"/>
      <path id="Path_38977" data-name="Path 38977" d="M722.559,755.22a11.24,11.24,0,0,0-.679,3,11.865,11.865,0,0,1,.747-2.036A6.059,6.059,0,0,0,722.559,755.22Z" transform="translate(-703.605 -704.489)"/>
      <path id="Path_38978" data-name="Path 38978" d="M755.307,748.476a3.889,3.889,0,0,0,.088-.9c-.122.611-.2,1.181-.265,1.677C755.184,749,755.239,748.741,755.307,748.476Z" transform="translate(-714.286 -702.035)"/>
      <path id="Path_38979" data-name="Path 38979" d="M722.434,797.142a5.141,5.141,0,0,0,.244-1.812,5.981,5.981,0,0,0-.468,2.287A2.194,2.194,0,0,1,722.434,797.142Z" transform="translate(-703.711 -717.374)"/>
      <path id="Path_38980" data-name="Path 38980" d="M718.88,820.68a32.672,32.672,0,0,0-1.12,5.016l-9.876,1.147a20.455,20.455,0,0,1-2.213-4.168,7.241,7.241,0,0,1-.278-.72c-.591.272-.828.882-.048,2.715a20.22,20.22,0,0,0,2.213,4.161l9.869-1.147s.74-5.145,1.717-6.109C719.627,821.053,719.321,820.809,718.88,820.68Z" transform="translate(-698.134 -725.517)"/>
      <path id="Path_38981" data-name="Path 38981" d="M702.656,760.975s.081,5.641.9,5.966h0c.414-.93.679-1.812.319-1.962-.815-.326-.9-5.96-.9-5.96s-1.636-6.7-1.222-8.5-1.31-6.109-1.31-6.109l-.57-5.145a14.173,14.173,0,0,1-1.8-9.72v-7.935s-2.287-15.354-2.613-23.112c-.21-4.969-.149-11.75-.082-15.985V680.48H695.1s-.041,1.568-.081,3.944c-.068,4.229-.129,11.016.081,15.985.326,7.758,2.613,23.112,2.613,23.112v7.921a14.125,14.125,0,0,0,1.839,9.8l.57,5.145s1.717,4.324,1.3,6.109S702.656,760.975,702.656,760.975Z" transform="translate(-694.956 -680.48)"/>
      <path id="Path_38982" data-name="Path 38982" d="M748.207,824.673a9.5,9.5,0,0,1-1.561-3.883c-1.011.91.149,4.446,1.235,5.844s9.638,2.369,11.274-.333v-1.554C756.943,826.94,749.293,826.064,748.207,824.673Z" transform="translate(-711.436 -725.552)"/>
      <path id="Path_38983" data-name="Path 38983" d="M766.88,812.875a16.332,16.332,0,0,0-1.14,2.45v1.147c.183-.421.448-.977.815-1.636a4.948,4.948,0,0,0,.36-2.036Z" transform="translate(-717.694 -722.986)"/>
      <path id="Path_38984" data-name="Path 38984" d="M747.658,809.1a15.715,15.715,0,0,0,.808-1.941s-1.358.326-3.6-2.287c-1.6-1.9-1.69-5.491-1.466-7.84-.407,1.391-1.066,7.188,1.14,9.8C745.988,808.549,747.067,808.99,747.658,809.1Z" transform="translate(-710.384 -717.92)"/>
      <path id="Path_38985" data-name="Path 38985" d="M736.774,766.887a44.86,44.86,0,0,1,.163,4.84c.054-.319.115-.577.163-.76.414-1.358,0-6.041,0-6.041s.081-3.272-.57-4.331-2.036-7.107-2.036-7.107a4.824,4.824,0,0,0-1.14-3.1c-1.14-1.066-1.88-5.226-1.88-5.226a5.356,5.356,0,0,1-.821-3.509c.251-2.036-1.358-4.249-1.358-4.249l-2.776-8.824L723.87,722l-1.473,3.835s0,.482-.048,1.242l1.195-3.116,2.613,6.611,2.776,8.824s1.629,2.206,1.358,4.242a5.37,5.37,0,0,0,.848,3.475s.733,4.161,1.873,5.227a4.848,4.848,0,0,1,1.147,3.1s1.357,6.041,2.036,7.107S736.774,766.887,736.774,766.887Z" transform="translate(-703.756 -693.818)"/>
    </g>
    <path id="Path_38986" data-name="Path 38986" d="M749.9,563.139l-.611,2.987.034,1.357v.977l-3.394.353-.38-.679h0a28.882,28.882,0,0,0-2.647-4.276c-.631-.529-1.751-8.824-.407-8.328a3.557,3.557,0,0,1,1.9,1.717S751.1,557.953,749.9,563.139Z" transform="translate(-273.45 -210.364)" fill="#ffcdd3"/>
    <path id="Path_38987" data-name="Path 38987" d="M751.1,573.9l-3.394.353-.38-.679h0a3,3,0,0,1,3.76-.618Z" transform="translate(-275.207 -215.84)" opacity="0.1"/>
    <path id="Path_38988" data-name="Path 38988" d="M751.86,575.657l-4.487,1.045-.1-.679-.258-1.8a3.088,3.088,0,0,1,4.351-.6l.224.916Z" transform="translate(-275.108 -215.98)" fill="#dce6f2"/>
    <path id="Path_38989" data-name="Path 38989" d="M641.761,560.451l-4.792,2.579-.434-.91c-.462-.957-1.14-2.4-1.358-2.912-.285-.794-2.287-1.8-2.287-1.8-5.023-4.8.957-8.919.957-8.919,3.17-6.374,6.7,2.159,6.7,2.159s.489,4.5.143,4.8-.346,1.534-.346,1.534A18.648,18.648,0,0,1,641.5,559.7C641.686,560.173,641.761,560.451,641.761,560.451Z" transform="translate(-237.8 -207.351)" fill="#ffcdd3"/>
    <path id="Path_38990" data-name="Path 38990" d="M644.437,566.872l-4.792,2.579-.435-.91c.679-.563,3.075-2.511,3.862-2.423a5.616,5.616,0,0,0,1.14,0C644.362,566.594,644.437,566.872,644.437,566.872Z" transform="translate(-240.475 -213.772)" opacity="0.1"/>
    <path id="Path_38991" data-name="Path 38991" d="M644.993,568.479l-5.389,2.654-.109-1.161-.075-.794s3.122-2.681,4.073-2.579a5.01,5.01,0,0,0,1.412,0l.061.971Z" transform="translate(-240.543 -213.926)" fill="#dce6f2"/>
    <path id="Path_38992" data-name="Path 38992" d="M725.145,587.308s-23.506,2.654-19.114,1.229c3.061-1,4.276-2.939,4.534-5.1a12.415,12.415,0,0,0-.876-5.43,23.589,23.589,0,0,0-2.1-4.249s17.967-9.883,14.376-.9a14.089,14.089,0,0,0-1.018,4.256,12,12,0,0,0,.455,4.3A12.836,12.836,0,0,0,725.145,587.308Z" transform="translate(-261.765 -214.727)" fill="#ffcdd3"/>
    <path id="Path_38993" data-name="Path 38993" d="M722.956,572.857a14.087,14.087,0,0,0-1.018,4.256c-1.7,1.419-3.55,1.358-5.932,1.358-1.833,0-3.862.448-5.322-.434a23.592,23.592,0,0,0-2.1-4.249S726.547,563.871,722.956,572.857Z" transform="translate(-262.76 -214.728)" opacity="0.1"/>
    <circle id="Ellipse_1906" data-name="Ellipse 1906" cx="9.72" cy="9.72" r="9.72" transform="translate(443.207 344.901)" fill="#ffcdd3"/>
    <path id="Path_38994" data-name="Path 38994" d="M725.145,592.664s-23.506,2.654-19.114,1.229c3.061-1,4.276-2.939,4.534-5.1,1.167-1.269,3.516-2.186,5.03-2.668a7.013,7.013,0,0,1,4.256-.068,5.674,5.674,0,0,1,1.548.679A12.837,12.837,0,0,0,725.145,592.664Z" transform="translate(-261.765 -220.083)" opacity="0.1"/>
    <path id="Path_38995" data-name="Path 38995" d="M751.982,576.318l-4.487,1.045-.1-.679a3.964,3.964,0,0,1,4.317-1.48Z" transform="translate(-275.23 -216.641)" opacity="0.1"/>
    <path id="Path_38996" data-name="Path 38996" d="M645.028,568.94l-5.389,2.654-.109-1.161a39.669,39.669,0,0,1,5.43-2.4Z" transform="translate(-240.578 -214.387)" opacity="0.1"/>
    <path id="Path_38997" data-name="Path 38997" d="M731.109,680.71c-9.1,1.432-22.06,3.305-24.117,2.681-1.7-.523-7.147-.468-11.892-.306.041-2.369.081-3.943.081-3.943l35.3-3.672A29.238,29.238,0,0,0,731.109,680.71Z" transform="translate(-258.429 -248.9)" opacity="0.1"/>
    <path id="Path_38998" data-name="Path 38998" d="M721.66,644.166s-29.974,5.145-33.192,4.161-19.732.088-19.732.088c-7.432,4.975-4.324-2.369-4.324-2.369a17.711,17.711,0,0,1,.244-6.944,42.538,42.538,0,0,0,1.222-6.944s-.163-4.9.733-6.041,1.962-9.313,1.962-9.313.821-5.552.74-6.788.244-4.649.244-4.649l1.059-5.722c-6.109-.815-24.748-12.252-24.748-12.252-.9-3.835-7.84-12.822-7.84-12.822a9.454,9.454,0,0,0-.57-2.206c-.489-1.3,6.862-3.916,6.862-3.916s5.471,6.7,6.611,8.491S656,582.087,656,582.087a3.958,3.958,0,0,1,1.8.237h.1a14.485,14.485,0,0,1,3.652,2.1,7.079,7.079,0,0,1,4.982,1.88s3.353-.489,3.923.081,3.394,0,3.394,0,2.864-6.041,4.751-4.29,9.849,1.677,9.849,1.677c1.066-1.412,3.645-2.423,5.267-2.946a7.012,7.012,0,0,1,4.256-.068,5.265,5.265,0,0,1,1.683.815l4.833,4.751s1.358-1.8,1.229-2.206,1.636-.733,1.636-.733,2.369-.733,3.265-.984,1.724.733,1.792.815a9.565,9.565,0,0,1-.407-3.591,4.072,4.072,0,0,0-.977-2.939c2.885-6.978,9.34-1.073,9.34-1.073s.733,3.835.081,5.308.679,4.575.489,5.389.326,2.206.326,3.754a22.336,22.336,0,0,1-1.3,5.8c-.5,1.3-4.412,4.242-4.412,4.242s-.244,4.656-1.962,7.351-.679,11.926-.679,11.926,1.629,7.188,3.672,9.5S721.66,644.166,721.66,644.166Z" transform="translate(-239.906 -214.522)" fill="#3f3d56"/>
    <path id="Path_38999" data-name="Path 38999" d="M695.216,598.5s-.9-2.715-1.717-2.946a19.344,19.344,0,0,1-2.369-1.059l.529-1s3.068.842,3.557,1.738S695.216,598.5,695.216,598.5Z" transform="translate(-257.154 -222.565)" opacity="0.1"/>
    <path id="Path_39000" data-name="Path 39000" d="M669.486,591.071c-.163.821-7.426,1.554-7.426,1.554l3.672-3.686h0l.1.034h0A14.485,14.485,0,0,1,669.486,591.071Z" transform="translate(-247.816 -221.104)" opacity="0.1"/>
    <circle id="Ellipse_1907" data-name="Ellipse 1907" cx="0.652" cy="0.652" r="0.652" transform="translate(399.963 358.11)" fill="#575988"/>
    <circle id="Ellipse_1908" data-name="Ellipse 1908" cx="0.652" cy="0.652" r="0.652" transform="translate(400.798 359.42)" fill="#575988"/>
    <circle id="Ellipse_1909" data-name="Ellipse 1909" cx="0.652" cy="0.652" r="0.652" transform="translate(401.619 360.621)" fill="#575988"/>
    <circle id="Ellipse_1910" data-name="Ellipse 1910" cx="0.652" cy="0.652" r="0.652" transform="translate(402.475 361.931)" fill="#575988"/>
    <circle id="Ellipse_1911" data-name="Ellipse 1911" cx="0.529" cy="0.529" r="0.529" transform="translate(479.582 361.978)" fill="#575988"/>
    <circle id="Ellipse_1912" data-name="Ellipse 1912" cx="0.529" cy="0.529" r="0.529" transform="translate(479.664 363.187)" fill="#575988"/>
    <circle id="Ellipse_1913" data-name="Ellipse 1913" cx="0.529" cy="0.529" r="0.529" transform="translate(479.732 364.388)" fill="#575988"/>
    <path id="Path_39001" data-name="Path 39001" d="M697.21,633.47c-.075-.1,18.327,23.153,32.628,9.72C729.838,643.19,707.249,646.251,697.21,633.47Z" transform="translate(-259.107 -235.408)" opacity="0.1"/>
    <path id="Path_39002" data-name="Path 39002" d="M681.63,651.28s11.016.3,12.17,3.469v3.3a2.111,2.111,0,0,1-2.036,0c-1.113-.6-7.772-3.984-10.12-2.355Z" transform="translate(-254.102 -241.129)" opacity="0.1"/>
    <path id="Path_39003" data-name="Path 39003" d="M681.93,651.28s10.534.285,11.641,3.306v3.149a2.036,2.036,0,0,1-1.962,0c-1.066-.577-7.466-3.8-9.679-2.247Z" transform="translate(-254.199 -241.129)" fill="#3f3d56"/>
    <path id="Path_39004" data-name="Path 39004" d="M690.49,616a35.479,35.479,0,0,0,4.269,7.324,28.608,28.608,0,0,0,6.693,6.462S690.673,617.541,690.49,616Z" transform="translate(-256.948 -229.796)" opacity="0.1"/>
    <path id="Path_39005" data-name="Path 39005" d="M685.18,597.18s1.839,7.935,6.57,10.629Z" transform="translate(-255.243 -223.751)" opacity="0.1"/>
    <path id="Path_39006" data-name="Path 39006" d="M680.922,598.359c-.047-.149-1.636,6.272,6.109,9.829C687.031,608.187,683.759,607.074,680.922,598.359Z" transform="translate(-253.822 -224.129)" opacity="0.1"/>
    <path id="Path_39007" data-name="Path 39007" d="M751.9,590.518a56.857,56.857,0,0,1,4.887,3.672S754.227,590.355,751.9,590.518Z" transform="translate(-276.674 -221.609)" opacity="0.1"/>
    <path id="Path_39008" data-name="Path 39008" d="M711.356,572.057a2.07,2.07,0,0,0,.753,1.317,2.123,2.123,0,0,0,.916.2c2.966.183,6.048.312,8.824-.828a3.285,3.285,0,0,0,1.358-.889,5.287,5.287,0,0,0,.72-2.138,33.319,33.319,0,0,1,1.8-4.127,13.867,13.867,0,0,0,.957-7.412,4.961,4.961,0,0,0-.74-2.172c-.787-1.12-2.22-1.575-3.258-2.471s-1.711-2.26-2.919-2.932a5.675,5.675,0,0,0-3.665-.326,19.366,19.366,0,0,0-6.842,2.572,3.388,3.388,0,0,1-2.287.781,3.144,3.144,0,0,1-1.683-1.29,9.04,9.04,0,0,0-.726,4.229,1.251,1.251,0,0,1-.455,1.317c-.733.849-1.188,2.192-.468,3.048.319.373.8.577,1.106.957.55.679.36,1.663.346,2.539a1.358,1.358,0,0,0,.217.862,1.263,1.263,0,0,0,1.2.285,3.283,3.283,0,0,1,1.276-.122,2.152,2.152,0,0,1,1.113.855A15.52,15.52,0,0,1,711.356,572.057Z" transform="translate(-261.056 -208.633)" fill="#2d293d"/>
    <g id="Group_1123" data-name="Group 1123" transform="translate(442.153 343.611)" opacity="0.1">
      <path id="Path_39009" data-name="Path 39009" d="M723.42,574.953a3.211,3.211,0,0,1-1.358.882c-2.715,1.147-5.824,1.011-8.783.828a2,2,0,0,1-.916-.2,2.037,2.037,0,0,1-.76-1.31,15.147,15.147,0,0,0-2.478-5.749,2.117,2.117,0,0,0-1.113-.855,3.284,3.284,0,0,0-1.276.122,1.262,1.262,0,0,1-1.2-.285,1.316,1.316,0,0,1-.21-.862c0-.876.2-1.86-.353-2.539-.305-.38-.787-.584-1.106-.957a1.915,1.915,0,0,1-.183-1.955,2.236,2.236,0,0,0-.143,2.607c.319.373.8.577,1.106.957.55.679.36,1.663.346,2.539a1.357,1.357,0,0,0,.217.862,1.255,1.255,0,0,0,1.2.285,3.286,3.286,0,0,1,1.276-.122,2.152,2.152,0,0,1,1.113.855,15.414,15.414,0,0,1,2.478,5.749,2.07,2.07,0,0,0,.753,1.317,2.123,2.123,0,0,0,.916.2c2.966.183,6.048.312,8.824-.828a3.332,3.332,0,0,0,1.357-.889,2.584,2.584,0,0,0,.421-.787A.489.489,0,0,1,723.42,574.953Z" transform="translate(-703.176 -556.083)"/>
      <path id="Path_39010" data-name="Path 39010" d="M705.156,557.961a1.357,1.357,0,0,0,.3-.5,2.034,2.034,0,0,0,0-.638,8.96,8.96,0,0,1,.455-3.516l-.054-.061a8.959,8.959,0,0,0-.726,4.229A2.861,2.861,0,0,1,705.156,557.961Z" transform="translate(-703.796 -553.25)"/>
    </g>
    <path id="Path_39011" data-name="Path 39011" d="M712.62,591.017s12.143,1.609,13.236-.217" transform="translate(-264.057 -221.701)" opacity="0.1"/>
    <path id="Path_39012" data-name="Path 39012" d="M747.4,583.72s6.74,0,8.227,2.539" transform="translate(-275.23 -219.427)" opacity="0.1"/>
  </g>
</svg>
